<svg id="Camada_1" data-name="Camada 1" xmlns="http://www.w3.org/2000/svg" viewBox="0 0 61.5 21.7"><path d="M.1,5.2.4,7.5A9.7,9.7,0,0,1,.5,9.2v2.5C.4,13.1.4,14.5.4,16.1v2.4c0,.2-.1.4-.1.7s0,.2-.1.3a1.3,1.3,0,0,1-.1.6,9.4,9.4,0,0,0,2.3,1l1.3.3h1v-.9h0a2.2,2.2,0,0,1,.1.8L5.9,21l1.2-.5h0c.1-.2.3-.4.2-.4a.7.7,0,0,1-.1-.5c0-.1,0-.2-.1-.2h.1l2-.5,2.4-.4,2.2-.3h1.4c.2-.1.2-.3.2-.5h0c.1.1.1.4.3.5h.2l2.3-.3h2.6a6.5,6.5,0,0,0,2.4-.1h3.4c.5-.2.2-.8.3-1.1s.1.3.1.3v.7h3.9a17.6,17.6,0,0,0,2.3,0h4a15.3,15.3,0,0,0,3.7.1H41a.8.8,0,0,0,.2-.5v.4c0,.5,1.4.2,1.7.2h3.5l3,.2,1.4.2h.7c0,.2.8.2,1,.2a3.1,3.1,0,0,1,1.9.9,2,2,0,0,0-.1.7c-.1.5.2.7.8.9s1,.8,1.4.7.1,0,.1-.1a1.9,1.9,0,0,1,.2-.8h0v.7c0,.2.3.2.4.1h.6l.9-.2a4.2,4.2,0,0,0,2.6-1.2c.2-.1,0-.3-.1-.4a4.1,4.1,0,0,1-.1-1.1V16.1c0-1.6,0-3-.1-4.4s-.1-1.7-.1-2.5a9.9,9.9,0,0,1,.2-1.7l.3-2.3a1.3,1.3,0,0,1,.1-.6,2.7,2.7,0,0,0-.6-1.7l-1-.7h-.3a4.9,4.9,0,0,0-1.7-.6c-.9-.4-.9.1-1.2.5s.2-.4.1-.5L56,1.1,51.9.5,47.6.3c-.8,0-1.1,0-1.3.3S46.2.4,46,.4L44.1.2H39.3a3.8,3.8,0,0,0-1.5.1c-.3.1-.2.3-.2.4v.8l-.3.8c-.1,0-.1.1-.1.2a3.1,3.1,0,0,0,0-1.9C37-.2,35.8,0,35.1,0H27.3V.2H25.1c-.3.2-.6.1-.9.1H15.8L12.6.5c-1.1.1-1.2-.1-1.5.1a.7.7,0,0,0-.4.7V1c0-.1,0-.4-.2-.4a28.7,28.7,0,0,0-4.1.5,26.3,26.3,0,0,0-3.9.6l-1.1.6h0l-.8.6A2.7,2.7,0,0,0,0,4.6,1.3,1.3,0,0,0,.1,5.2Z" fill="#5a310a"/><path d="M6.6,20.4l-1,.4L5,21H4.9v-.4c-.1-.2-.1-.5-.2-.5H4.6c0,.1-.1.8-.5.8H2L.8,20.3a.5.5,0,0,1-.3-.7c0-.1.1-.1.1-.2a2.5,2.5,0,0,0,1.9.5h0a2.8,2.8,0,0,1-1.3-.4l-.4-.2-.2-.2h0v-.3a1.4,1.4,0,0,0,.9.1H1.1l-.4-.3h0c0-.7.1-1.4.1-2.2h0c.2.2.6.1.9.1s.1,0,.1-.1H.8v-.8h.6l-.6-.3V11.9H1l-.2-.2v-.3h.4L1,11.2H.8a3.4,3.4,0,0,0,.1-1,5.5,5.5,0,0,0,2.7.4h0A4.4,4.4,0,0,1,2,10.4L.9,9.8V9.6C.9,9,.8,8.4.8,7.9H1L.7,7.5H1c.4.2.8,0,1.3.1H2l-.8-.2L.7,7.1a18.8,18.8,0,0,1-.3-2A3.3,3.3,0,0,0,2.5,6.2h3l.3.7h.1V6.5c0-.2.1-.2.1-.3s0-.3.1-.3h0l.5-.4.2-.3v.4a1.9,1.9,0,0,1-.1.8A3.6,3.6,0,0,1,4.3,7.9h0A3,3,0,0,0,6.7,6.8,4.9,4.9,0,0,0,6.6,8H6.5l-.3.2-.6.4h0l.9-.4v.3a8,8,0,0,1-3.1.9H5.2l1.3-.6h0c-.1.6-.1,1.1-.2,1.7s-.1.1-.2.2l-.5.2h.1l.5-.2h.1v1.9l-.4.3c-.3.3-1,.3-1.5.4h.1a3.2,3.2,0,0,0,1.4-.3l.5-.2h0a13.1,13.1,0,0,0,0,2.8c-.2.2-.3.4-.6.4l-.7.4h.1l.9-.3h.3v.4a1.7,1.7,0,0,1,.1.7l-.3.3a1,1,0,0,1-.7.4l-1.3.5h.1l1.5-.4a1.6,1.6,0,0,0,.8-.6c0,.2.1.4.1.7H6.6v.2H6.2l-.2.2H6l.5-.3h.1c.1,0,.1.1.1.2H6.6l-1,.6h0l.9-.3c0-.1.1-.1.2-.1h0c0,.1.1.2.1.4h0c0,.1.1.3.1.4A.9.9,0,0,1,6.6,20.4Z" fill="#f5d3a0"/><path d="M2.6,5.6H2.3V5.2c0-.2,0-.2-.1-.3h0V4.6A2.3,2.3,0,0,0,4,4.7h.2l-.3.2h.3a.4.4,0,0,0-.1.3h0v.2H2.6Z" fill="#9f6c3c"/><path d="M5.3,4.6a2,2,0,0,0,.4-.8c.1,0,.1-.1.1-.2l.8.5a.5.5,0,0,1,.3.5c-.1.4-.9.8-1.1.9v.7l-.2-.3H5.4l-.9.3V5.8c0-.2,0-.3-.1-.3a1.3,1.3,0,0,0,.1-.6c-.1-.3.1-.5-.3-.8h0l-.8-.3H3.3a2.5,2.5,0,0,1-.1.8H2.8c-.1,0-.8-.7-.3-1A4.3,4.3,0,0,1,5,3.5v.9Z" fill="#b97c43"/><path d="M61,5.5l-.4.4-.6.4h0l1-.5V6a6.8,6.8,0,0,1-3.1,1.1h0a5.8,5.8,0,0,0,1.9-.3l1.1-.7c0,.4-.1.9-.1,1.2a2,2,0,0,0-.1.7l-.9.6L58.4,9h0c.7-.3,1.7-.3,2.2-.7v.5l-.5.3-1.2.5h0L60,9.4l.6-.4v2.7c0,.8.1,1.6.1,2.4h-.1l-.6.3-1,.2h0l1.3-.2c.1-.1.3-.1.4-.3v1.6l-1.8.6s-.1.1,0,.1l1.2-.3.6-.2v.3a16.9,16.9,0,0,0,.1,2.3h0l-.7.4h.7l-.4.3-1,.2h.9l.6-.2c0,.2.1.3.1.6a.7.7,0,0,1-.4.5l-1.1.6H58.3a3.4,3.4,0,0,1-1,0c-.3.1-.4-.9-.4-.9s-.3.3-.3.5a.8.8,0,0,1-.1.4c0,.1.1.2-.1.1l-1-.5c-.4-.2-.9-.5-.8-.7h.2l.6.2h0l-.5-.3a.2.2,0,0,1-.2-.2h-.1c0-.3.2-1,.2-1.2v-.2H55c0-.1,0-.2-.1-.2s0-.1-.1-.1.1-.1.1-.2H55l.3.2,1.2.3h0l-.8-.3-.5-.2-.3-.2h0c0-.6.1-1.4.2-2.3a3.1,3.1,0,0,0,1.3.6h2.1a4.5,4.5,0,0,1-2-.1l-1.4-.7v-.2h.1l.6.3h.1l-.6-.2-.2-.3a12.1,12.1,0,0,0,.1-1.9v-.8c.7,1,3,.5,4.2.4h0c-1.5,0-3,.4-4.2-.4h0c-.1-.1-.1-.2-.1-.4s.3.3.5.3h.9a.8.8,0,0,1-.8-.2l-.6-.3v-.4l.6.3h1.6l-1.5-.3c-.3-.1-.4-.4-.7-.5s-.1-1-.1-1.7h0l1.1.4s.1-.1,0-.1a1.6,1.6,0,0,1-.9-.3l-.3-.2c0-.6-.1-1.2-.1-1.7a5,5,0,0,0-.2-1.2V5.1l.3.3.5.4h0v.3l.2.3v.3h0l.3-.7H59a3.3,3.3,0,0,0,2.1-1.1C61.1,5.3,61.1,5.4,61,5.5Z" fill="#f5d3a0"/><path d="M56.4,3.8V3.5a4.3,4.3,0,0,1,2.5.1c.5.3.6.9-.3,1h-.4c-.2,0-.1-.5-.1-.8s0,0-.1,0l-.7.3h-.1a.7.7,0,0,0-.2.6h0v.2a5,5,0,0,1,.2,1.2H57c-.4,0-.6-.2-1-.3h-.1a.5.5,0,0,0-.2.4,1.7,1.7,0,0,0-.1-.7c-.1-.2-.9-.6-1-.9a.9.9,0,0,1,.3-.6c.1-.2.4-.3.8-.4s0,.2.1.2V4l.5.4s.1-.1,0-.1Z" fill="#b97c43"/><path d="M58.3,5a1.4,1.4,0,0,0,.9-.1h0c-.2.1-.3.3-.6.3h-.9a2,2,0,0,0,1.5,0v.3h0v.2H57.5a.1.1,0,0,0,0-.2h0a.4.4,0,0,0-.1-.3l.5.2h-.2l-.2-.2c0-.1-.1-.1-.1-.2V4.7h.5c-.2.1-.4-.1-.5-.2h.2a2.8,2.8,0,0,0,1.8-.2v.2h-1Z" fill="#9f6c3c"/><path d="M4.6,2.1l-2,.2L1.3,3a3.2,3.2,0,0,0-.9.8A1.5,1.5,0,0,1,1,2.9l.2-.2.3-.2a7.5,7.5,0,0,1,3.2-1l2.9-.4A8.2,8.2,0,0,1,10.3.9h0c.1,0,.1.1.1.2l.2.4c0,.2,0,.3.1.4h0l.2-.4c.1-.1,0-.2.1-.3s.1-.3.2-.5H26.9a.8.8,0,0,1,.2.5h.1a1.7,1.7,0,0,0,.1-.7h8.9a.6.6,0,0,1,.6.3A4.3,4.3,0,0,1,37,1.8v.8c.1.1.1.4.2.4a1.7,1.7,0,0,1,.2-.5,6.1,6.1,0,0,1,.5-1.2V.7c0-.3-.1-.4.5-.4h6.1c.4,0,1.6,0,1.6.3s.2.1.3,0a1.2,1.2,0,0,1,.8-.4h1.5L52,.6l3.5.5.6.2h.5a2.5,2.5,0,0,1-.1.8h.1l.4-.4c.2-.2.1-.5.6-.2l.5.2,1.8.6a1,1,0,0,1,.5.4,1.9,1.9,0,0,1,.8,1.5h0a.5.5,0,0,1-.2.4c-.1.2-1.5-2.6-3.2-2.7h0c1.6.3,3.4,1.8,3.1,2.8h0l-.3.3c.1-.1.1-.2.1-.4a.5.5,0,0,0-.3-.4c0-.1-.1,0-.1.1l.2.3c.1.2,0,.4,0,.5l-1,.5h0v.2c0-.1,0-.2-.1-.2a1.3,1.3,0,0,0,.1-.6.9.9,0,0,0,.1-.7V3.9h-.1a3.4,3.4,0,0,0-3.1-.7h-.2a7.8,7.8,0,0,1,.1.9l-.6-.7-.5.2-.6.2a1.1,1.1,0,0,0-.3.8v2a9.9,9.9,0,0,1,.2,1.7c.1,1.3.2,2.7.2,4s.1,2.5.1,3.8a7.7,7.7,0,0,0-.2,1.5h-.1c-.1,0-.1.9-.2.8l-.9-.5-1.3-.2c-.5,0-.5-.1-.5-.4h0l-.3.2c-.2.2-1.1,0-1.5-.1a12.2,12.2,0,0,0-3.3-.1H41.7c0-.1-.2-.2-.2-.4l-.4-.8h0c0,.1,0,1.1-.5,1H38.1l-2.2-.3H27.3a5,5,0,0,0-.2-1.2H27a3.7,3.7,0,0,0-.5,1.1h-.8c-1.8,0-3.6.3-5.4.3a28.3,28.3,0,0,0-4.1.3h-.4a1.1,1.1,0,0,0-.2-.6l-.3-.4h0l-.3.8h0v.2c0-.3-1.9.1-2.1.2l-1.9.5-1.7.2-1.2.3-1,.3c-.1-.5-.1-.9-.2-1.4a7.7,7.7,0,0,1-.2-1.5V12.4c0-1.3.1-2.7.2-4a9.9,9.9,0,0,0,.2-1.7V6.2a4.3,4.3,0,0,0,0-1.6c.1-.2-.1-.4-.3-.7l-.6-.3H5.7l-.5.7a7.8,7.8,0,0,1,.1-.9H5c-1-.3-2.5-.2-3,.5H1.9c-.1.1-.1.2-.1.4a1.7,1.7,0,0,0,.1.7A3.4,3.4,0,0,1,2,6H2l-.7-.5L.9,5.3l.2-.2h0l-.3.2L.6,5l.2-.3H1l.2-.3H1l-.3.3H.5c-.1,0-.2-.2-.2-.3s.8-1,1.5-1.4A5.7,5.7,0,0,1,4.6,2.1Z" fill="#f5d3a0"/><path d="M55.6,16a3.7,3.7,0,0,0,1.4.7h0a2.9,2.9,0,0,1-1.3-.8Z" fill="#5a310a"/><path d="M60.7,5.4h.1s.1-.4-.2-.5h-.1Z" fill="#5a310a"/><path d="M.1,5.2.4,7.5A9.7,9.7,0,0,1,.5,9.2v2.5C.4,13.1.4,14.5.4,16.1v2.4c0,.2-.1.4-.1.7s0,.2-.1.3a1.3,1.3,0,0,1-.1.6,9.4,9.4,0,0,0,2.3,1l1.3.3h1v-.9h0a2.2,2.2,0,0,1,.1.8L5.9,21l1.2-.5h0c.1-.2.3-.4.2-.4a.7.7,0,0,1-.1-.5c0-.1,0-.2-.1-.2h.1l2-.5,2.4-.4,2.2-.3h1.4c.2-.1.2-.3.2-.5h0c.1.1.1.4.3.5h.2l2.3-.3h2.6a6.5,6.5,0,0,0,2.4-.1h3.4c.5-.2.2-.8.3-1.1s.1.3.1.3v.7h3.9a17.6,17.6,0,0,0,2.3,0h4a15.3,15.3,0,0,0,3.7.1H41a.8.8,0,0,0,.2-.5v.4c0,.5,1.4.2,1.7.2h3.5l3,.2,1.4.2h.7c0,.2.8.2,1,.2a3.1,3.1,0,0,1,1.9.9,2,2,0,0,0-.1.7c-.1.5.2.7.8.9s1,.8,1.4.7.1,0,.1-.1a1.9,1.9,0,0,1,.2-.8h0v.7c0,.2.3.2.4.1h.6l.9-.2a4.2,4.2,0,0,0,2.6-1.2c.2-.1,0-.3-.1-.4a4.1,4.1,0,0,1-.1-1.1V16.1c0-1.6,0-3-.1-4.4s-.1-1.7-.1-2.5a9.9,9.9,0,0,1,.2-1.7l.3-2.3a1.3,1.3,0,0,1,.1-.6,2.7,2.7,0,0,0-.6-1.7l-1-.7h-.3a4.9,4.9,0,0,0-1.7-.6c-.9-.4-.9.1-1.2.5s.2-.4.1-.5L56,1.1,51.9.5,47.6.3c-.8,0-1.1,0-1.3.3S46.2.4,46,.4L44.1.2H39.3a3.8,3.8,0,0,0-1.5.1c-.3.1-.2.3-.2.4v.8l-.3.8c-.1,0-.1.1-.1.2a3.1,3.1,0,0,0,0-1.9C37-.2,35.8,0,35.1,0H27.3V.2H25.1c-.3.2-.6.1-.9.1H15.8L12.6.5c-1.1.1-1.2-.1-1.5.1a.7.7,0,0,0-.4.7V1c0-.1,0-.4-.2-.4a28.7,28.7,0,0,0-4.1.5,26.3,26.3,0,0,0-3.9.6l-1.1.6h0l-.8.6A2.7,2.7,0,0,0,0,4.6,1.3,1.3,0,0,0,.1,5.2Z" fill="#5a310a"/><path d="M6.6,20.4l-1,.4L5,21H4.9v-.4c-.1-.2-.1-.5-.2-.5H4.6c0,.1-.1.8-.5.8H2L.8,20.3a.5.5,0,0,1-.3-.7c0-.1.1-.1.1-.2a2.5,2.5,0,0,0,1.9.5h0a2.8,2.8,0,0,1-1.3-.4l-.4-.2-.2-.2h0v-.3a1.4,1.4,0,0,0,.9.1H1.1l-.4-.3h0c0-.7.1-1.4.1-2.2h0c.2.2.6.1.9.1s.1,0,.1-.1H.8v-.8h.6l-.6-.3V11.9H1l-.2-.2v-.3h.4L1,11.2H.8a3.4,3.4,0,0,0,.1-1,5.5,5.5,0,0,0,2.7.4h0A4.4,4.4,0,0,1,2,10.4L.9,9.8V9.6C.9,9,.8,8.4.8,7.9H1L.7,7.5H1c.4.2.8,0,1.3.1H2l-.8-.2L.7,7.1a18.8,18.8,0,0,1-.3-2A3.3,3.3,0,0,0,2.5,6.2h3l.3.7h.1V6.5c0-.2.1-.2.1-.3s0-.3.1-.3h0l.5-.4.2-.3v.4a1.9,1.9,0,0,1-.1.8A3.6,3.6,0,0,1,4.3,7.9h0A3,3,0,0,0,6.7,6.8,4.9,4.9,0,0,0,6.6,8H6.5l-.3.2-.6.4h0l.9-.4v.3a8,8,0,0,1-3.1.9H5.2l1.3-.6h0c-.1.6-.1,1.1-.2,1.7s-.1.1-.2.2l-.5.2h.1l.5-.2h.1v1.9l-.4.3c-.3.3-1,.3-1.5.4h.1a3.2,3.2,0,0,0,1.4-.3l.5-.2h0a13.1,13.1,0,0,0,0,2.8c-.2.2-.3.4-.6.4l-.7.4h.1l.9-.3h.3v.4a1.7,1.7,0,0,1,.1.7l-.3.3a1,1,0,0,1-.7.4l-1.3.5h.1l1.5-.4a1.6,1.6,0,0,0,.8-.6c0,.2.1.4.1.7H6.6v.2H6.2l-.2.2H6l.5-.3h.1c.1,0,.1.1.1.2H6.6l-1,.6h0l.9-.3c0-.1.1-.1.2-.1h0c0,.1.1.2.1.4h0c0,.1.1.3.1.4A.9.9,0,0,1,6.6,20.4Z" fill="#f5d3a0"/><path d="M2.6,5.6H2.3V5.2c0-.2,0-.2-.1-.3h0V4.6A2.3,2.3,0,0,0,4,4.7h.2l-.3.2h.3a.4.4,0,0,0-.1.3h0v.2H2.6Z" fill="#9f6c3c"/><path d="M5.3,4.6a2,2,0,0,0,.4-.8c.1,0,.1-.1.1-.2l.8.5a.5.5,0,0,1,.3.5c-.1.4-.9.8-1.1.9v.7l-.2-.3H5.4l-.9.3V5.8c0-.2,0-.3-.1-.3a1.3,1.3,0,0,0,.1-.6c-.1-.3.1-.5-.3-.8h0l-.8-.3H3.3a2.5,2.5,0,0,1-.1.8H2.8c-.1,0-.8-.7-.3-1A4.3,4.3,0,0,1,5,3.5v.9Z" fill="#b97c43"/><path d="M61,5.5l-.4.4-.6.4h0l1-.5V6a6.8,6.8,0,0,1-3.1,1.1h0a5.8,5.8,0,0,0,1.9-.3l1.1-.7c0,.4-.1.9-.1,1.2a2,2,0,0,0-.1.7l-.9.6L58.4,9h0c.7-.3,1.7-.3,2.2-.7v.5l-.5.3-1.2.5h0L60,9.4l.6-.4v2.7c0,.8.1,1.6.1,2.4h-.1l-.6.3-1,.2h0l1.3-.2c.1-.1.3-.1.4-.3v1.6l-1.8.6s-.1.1,0,.1l1.2-.3.6-.2v.3a16.9,16.9,0,0,0,.1,2.3h0l-.7.4h.7l-.4.3-1,.2h.9l.6-.2c0,.2.1.3.1.6a.7.7,0,0,1-.4.5l-1.1.6H58.3a3.4,3.4,0,0,1-1,0c-.3.1-.4-.9-.4-.9s-.3.3-.3.5a.8.8,0,0,1-.1.4c0,.1.1.2-.1.1l-1-.5c-.4-.2-.9-.5-.8-.7h.2l.6.2h0l-.5-.3a.2.2,0,0,1-.2-.2h-.1c0-.3.2-1,.2-1.2v-.2H55c0-.1,0-.2-.1-.2s0-.1-.1-.1.1-.1.1-.2H55l.3.2,1.2.3h0l-.8-.3-.5-.2-.3-.2h0c0-.6.1-1.4.2-2.3a3.1,3.1,0,0,0,1.3.6h2.1a4.5,4.5,0,0,1-2-.1l-1.4-.7v-.2h.1l.6.3h.1l-.6-.2-.2-.3a12.1,12.1,0,0,0,.1-1.9v-.8c.7,1,3,.5,4.2.4h0c-1.5,0-3,.4-4.2-.4h0c-.1-.1-.1-.2-.1-.4s.3.3.5.3h.9a.8.8,0,0,1-.8-.2l-.6-.3v-.4l.6.3h1.6l-1.5-.3c-.3-.1-.4-.4-.7-.5s-.1-1-.1-1.7h0l1.1.4s.1-.1,0-.1a1.6,1.6,0,0,1-.9-.3l-.3-.2c0-.6-.1-1.2-.1-1.7a5,5,0,0,0-.2-1.2V5.1l.3.3.5.4h0v.3l.2.3v.3h0l.3-.7H59a3.3,3.3,0,0,0,2.1-1.1C61.1,5.3,61.1,5.4,61,5.5Z" fill="#f5d3a0"/><path d="M56.4,3.8V3.5a4.3,4.3,0,0,1,2.5.1c.5.3.6.9-.3,1h-.4c-.2,0-.1-.5-.1-.8s0,0-.1,0l-.7.3h-.1a.7.7,0,0,0-.2.6h0v.2a5,5,0,0,1,.2,1.2H57c-.4,0-.6-.2-1-.3h-.1a.5.5,0,0,0-.2.4,1.7,1.7,0,0,0-.1-.7c-.1-.2-.9-.6-1-.9a.9.9,0,0,1,.3-.6c.1-.2.4-.3.8-.4s0,.2.1.2V4l.5.4s.1-.1,0-.1Z" fill="#b97c43"/><path d="M58.3,5a1.4,1.4,0,0,0,.9-.1h0c-.2.1-.3.3-.6.3h-.9a2,2,0,0,0,1.5,0v.3h0v.2H57.5a.1.1,0,0,0,0-.2h0a.4.4,0,0,0-.1-.3l.5.2h-.2l-.2-.2c0-.1-.1-.1-.1-.2V4.7h.5c-.2.1-.4-.1-.5-.2h.2a2.8,2.8,0,0,0,1.8-.2v.2h-1Z" fill="#9f6c3c"/><path d="M4.6,2.1l-2,.2L1.3,3a3.2,3.2,0,0,0-.9.8A1.5,1.5,0,0,1,1,2.9l.2-.2.3-.2a7.5,7.5,0,0,1,3.2-1l2.9-.4A8.2,8.2,0,0,1,10.3.9h0c.1,0,.1.1.1.2l.2.4c0,.2,0,.3.1.4h0l.2-.4c.1-.1,0-.2.1-.3s.1-.3.2-.5H26.9a.8.8,0,0,1,.2.5h.1a1.7,1.7,0,0,0,.1-.7h8.9a.6.6,0,0,1,.6.3A4.3,4.3,0,0,1,37,1.8v.8c.1.1.1.4.2.4a1.7,1.7,0,0,1,.2-.5,6.1,6.1,0,0,1,.5-1.2V.7c0-.3-.1-.4.5-.4h6.1c.4,0,1.6,0,1.6.3s.2.1.3,0a1.2,1.2,0,0,1,.8-.4h1.5L52,.6l3.5.5.6.2h.5a2.5,2.5,0,0,1-.1.8h.1l.4-.4c.2-.2.1-.5.6-.2l.5.2,1.8.6a1,1,0,0,1,.5.4,1.9,1.9,0,0,1,.8,1.5h0a.5.5,0,0,1-.2.4c-.1.2-1.5-2.6-3.2-2.7h0c1.6.3,3.4,1.8,3.1,2.8h0l-.3.3c.1-.1.1-.2.1-.4a.5.5,0,0,0-.3-.4c0-.1-.1,0-.1.1l.2.3c.1.2,0,.4,0,.5l-1,.5h0v.2c0-.1,0-.2-.1-.2a1.3,1.3,0,0,0,.1-.6.9.9,0,0,0,.1-.7V3.9h-.1a3.4,3.4,0,0,0-3.1-.7h-.2a7.8,7.8,0,0,1,.1.9l-.6-.7-.5.2-.6.2a1.1,1.1,0,0,0-.3.8v2a9.9,9.9,0,0,1,.2,1.7c.1,1.3.2,2.7.2,4s.1,2.5.1,3.8a7.7,7.7,0,0,0-.2,1.5h-.1c-.1,0-.1.9-.2.8l-.9-.5-1.3-.2c-.5,0-.5-.1-.5-.4h0l-.3.2c-.2.2-1.1,0-1.5-.1a12.2,12.2,0,0,0-3.3-.1H41.7c0-.1-.2-.2-.2-.4l-.4-.8h0c0,.1,0,1.1-.5,1H38.1l-2.2-.3H27.3a5,5,0,0,0-.2-1.2H27a3.7,3.7,0,0,0-.5,1.1h-.8c-1.8,0-3.6.3-5.4.3a28.3,28.3,0,0,0-4.1.3h-.4a1.1,1.1,0,0,0-.2-.6l-.3-.4h0l-.3.8h0v.2c0-.3-1.9.1-2.1.2l-1.9.5-1.7.2-1.2.3-1,.3c-.1-.5-.1-.9-.2-1.4a7.7,7.7,0,0,1-.2-1.5V12.4c0-1.3.1-2.7.2-4a9.9,9.9,0,0,0,.2-1.7V6.2a4.3,4.3,0,0,0,0-1.6c.1-.2-.1-.4-.3-.7l-.6-.3H5.7l-.5.7a7.8,7.8,0,0,1,.1-.9H5c-1-.3-2.5-.2-3,.5H1.9c-.1.1-.1.2-.1.4a1.7,1.7,0,0,0,.1.7A3.4,3.4,0,0,1,2,6H2l-.7-.5L.9,5.3l.2-.2h0l-.3.2L.6,5l.2-.3H1l.2-.3H1l-.3.3H.5c-.1,0-.2-.2-.2-.3s.8-1,1.5-1.4A5.7,5.7,0,0,1,4.6,2.1Z" fill="#f5d3a0"/><path d="M55.6,16a3.7,3.7,0,0,0,1.4.7h0a2.9,2.9,0,0,1-1.3-.8Z" fill="#5a310a"/><path d="M60.7,5.4h.1s.1-.4-.2-.5h-.1Z" fill="#5a310a"/></svg>