<svg id="Camada_1" data-name="Camada 1" xmlns="http://www.w3.org/2000/svg" xmlns:xlink="http://www.w3.org/1999/xlink" viewBox="0 0 598.4 440.5"><defs><linearGradient id="Áåçûìÿííûé_ãðàäèåíò_3" x1="447.8" y1="-218.09" x2="324.64" y2="145.46" gradientUnits="userSpaceOnUse"><stop offset="0" stop-color="#cf5c2b"/><stop offset="1" stop-color="#59173e"/></linearGradient><linearGradient id="Áåçûìÿííûé_ãðàäèåíò_3-2" x1="433.58" y1="-78.73" x2="52.27" y2="777.44" xlink:href="#Áåçûìÿííûé_ãðàäèåíò_3"/><linearGradient id="Áåçûìÿííûé_ãðàäèåíò_3-3" x1="407.36" y1="-27.37" x2="26.05" y2="828.81" xlink:href="#Áåçûìÿííûé_ãðàäèåíò_3"/><linearGradient id="Áåçûìÿííûé_ãðàäèåíò_3-4" x1="505.14" y1="-287.59" x2="196.75" y2="536.84" xlink:href="#Áåçûìÿííûé_ãðàäèåíò_3"/><linearGradient id="Áåçûìÿííûé_ãðàäèåíò_3-5" x1="441.65" y1="-119.76" x2="133.25" y2="704.67" xlink:href="#Áåçûìÿííûé_ãðàäèåíò_3"/><linearGradient id="Áåçûìÿííûé_ãðàäèåíò_3-6" x1="583.38" y1="-488.54" x2="273.33" y2="306.4" xlink:href="#Áåçûìÿííûé_ãðàäèåíò_3"/><linearGradient id="Áåçûìÿííûé_ãðàäèåíò_3-7" x1="302.45" y1="456.34" x2="302.45" y2="398.21" xlink:href="#Áåçûìÿííûé_ãðàäèåíò_3"/><linearGradient id="linear-gradient" x1="449.4" y1="-6.43" x2="154.32" y2="437.05" gradientUnits="userSpaceOnUse"><stop offset="0" stop-color="#849aa3"/><stop offset="0.2" stop-color="#7d929d"/><stop offset="0.51" stop-color="#697d8e"/><stop offset="0.69" stop-color="#5b6d82"/><stop offset="0.78" stop-color="#748fa7"/><stop offset="0.87" stop-color="#89abc6"/><stop offset="0.95" stop-color="#96bcd9"/><stop offset="1" stop-color="#9bc2e0"/></linearGradient><linearGradient id="linear-gradient-2" x1="535.77" y1="-153.84" x2="369.46" y2="108.24" gradientUnits="userSpaceOnUse"><stop offset="0" stop-color="#5e6d80"/><stop offset="1" stop-color="#4e576e"/></linearGradient></defs><path d="M598.3,405.8c-.1-2.9-.3-5.9-.4-8.9-.2-4.9-.5-9.8-.7-14.7,0-1.2-.1-2.4-.1-3.5-.2-4.5.3-9.2-2-13.3-.6-1.1-1.6-2.2-2.8-2.2,1.5-.5,2.4-2.2,2.8-3.8a38.4,38.4,0,0,0,.9-7.5c0-2.1-.2-4.3-.3-6.4s-.1-4.8-.2-7.3c-.2-4.8-.3-9.7-.5-14.5s-.3-9.7-.4-14.6c0-.8-.1-1.7-.1-2.6-.1-2.5-.1-5-.1-7.5a7.9,7.9,0,0,0-1.8-5.1,5,5,0,0,0-4.5-1.9,7.3,7.3,0,0,0,3.7-1.9c2.6-2.6,2.2-6.5,2.1-9.9l-.3-14.4c-.1-4.7-.1-9.5-.2-14.3s-.1-9.5-.2-14.3,0-9.5-.1-14.3V208.7c0-7.4,0-14.8.2-22.2,0-2.9.3-5.5-1.7-7.9l-1-.9c-.2-.1-.9-.8-1.1-.7a5.9,5.9,0,0,0,3.2-3,8,8,0,0,0,.5-2.1c0-1.8.1-3.7.1-5.5.1-5.9.2-12.1.4-18.1,0-3.2.1-6.4.2-9.6s-1.1-5.4-2.5-8a3.8,3.8,0,0,0,2.4-2.8,13.5,13.5,0,0,0,.2-3.5c.2-4.5.3-9.1.5-13.7,0-2.3.1-4.6.2-6.9v-1.7a3,3,0,0,0,.2-1,9.4,9.4,0,0,0-.8-3.3,6.1,6.1,0,0,0-2.6-2.9c.1-.3.5-.5.9-.6a4.9,4.9,0,0,0,2.8-4.1,4.8,4.8,0,0,0,0-1.2c-.1-1.4.1-2.8.1-4.2s.1-2.9.2-4.4c.2-6.1.5-12.2.8-18.3.5-12,1.2-24,1.9-36a13.9,13.9,0,0,0-12.8-14.7C397.1-4,208.3-3.6,19.1,11.4l-2.7.5a23,23,0,0,0-6.3,3.5,11,11,0,0,0-2.6,3.1c-.9,1.3-1.8,2.5-2.6,3.8C2.4,26.3-.2,30.6.1,35.4s.5,12,.7,18c.1,3,.3,6.1.4,9.2s.1,3.2.2,4.9a21.7,21.7,0,0,0,.1,3.6,17.1,17.1,0,0,1-.1,3.2,24.3,24.3,0,0,0,.3,3.8A6.7,6.7,0,0,0,2.2,80c1.1,1.9,3.7,2.1,5.4,3.5a21.4,21.4,0,0,0-4.8,1.3l-.6.4a1.6,1.6,0,0,0-.2,1V96a14.1,14.1,0,0,0,.2,4.1,21.7,21.7,0,0,1,.3,4.4c.1,6.3.3,12.7.4,19.1l.3,11.8c0,1.8.1,3.7.1,5.5a2.2,2.2,0,0,1-.1.8,4.9,4.9,0,0,0,.8,3.9,8.9,8.9,0,0,0,7.2,4.2l-4.2,1.5A4.5,4.5,0,0,0,4.6,153a3.8,3.8,0,0,0-.5,1.6c-1.1,7.6-.6,15.4-.3,23.1s.3,15.3.3,22.9.1,12.9.1,19.4,0,12.9-.1,19.3c0,4.7-.1,9.3-.1,14a4.5,4.5,0,0,1,0,2,8.7,8.7,0,0,0,.2,5.3,6.3,6.3,0,0,0,4.7,4,5.3,5.3,0,0,0-3.6,1.9,4.7,4.7,0,0,0-.8,2.6,38.3,38.3,0,0,0-.3,4.7,19.7,19.7,0,0,1,0,4.2c-.7,2.7-.5,5.6-.5,8.4s-.1,7.5-.2,11.3c-.1,6.5-.2,13-.4,19.5s-.3,13-.4,19.6c0,1.4-.1,2.9-.1,4.3a22.3,22.3,0,0,1-.2,3.7l-.3,1.3a5.9,5.9,0,0,0,.2,3.5,4.1,4.1,0,0,0,3.2,2.5c-1.3-.3-2.4,1-2.7,2.3s-.1,2.2-.3,3.4a5.9,5.9,0,0,0-.2,1.4A12.7,12.7,0,0,0,2,362a51.2,51.2,0,0,0-.3,5.6,2.8,2.8,0,0,0,.1.9l.6.7a15,15,0,0,0,5.7,2.7l-4.9,1.6-1.1.5a3,3,0,0,0-.5,2.1c-.1,1.6-.1,3.3-.1,4.9s-.2,1.1-.2,1.7a20.1,20.1,0,0,0-.1,2.5c-.1,3.2-.2,6.5-.4,9.8v.7c-.2,6.5-.5,13.1-.8,19.6a13.9,13.9,0,0,0,12.9,14.5q287.1,21.3,566.3.1a13.7,13.7,0,0,0,8.2-3.6L589,425c2.7-3,6.1-7.7,7.6-11.5S598.5,408.6,598.3,405.8Z" fill="url(#Áåçûìÿííûé_ãðàäèåíò_3)"/><path d="M585.5,420.4q-279.2,21.5-566.3,0A14,14,0,0,1,6.3,405.9c.1-1.7.1-3.4.1-5a28.8,28.8,0,0,1,.2-4.2c.1-.5.3-.9.4-1.4s.1-.9.2-1.4l.3-3.5.9-9.8a2.8,2.8,0,0,1,.1-.9,2.3,2.3,0,0,1,.4-1.4,2.5,2.5,0,0,1,1.2-.8A44.6,44.6,0,0,1,27,374.2a125.8,125.8,0,0,0,18.4-1.6l7.6-1H50.4c-5.6-.1-11.2-.3-16.8-.7l-9.6-1c-1.7-.2-9.6-.5-13.4-1.8-1.2-.5-2-1-2.1-1.7,0-2.6,0-5.2.1-7.8,0-.9-.2-3,.2-3.9s.3-.5,1.6-1a16.6,16.6,0,0,1,3.7-1.4,31.8,31.8,0,0,1,4.3-.6L34,350.2l-4-.3-18.2-1.1-2.9-.2a1.2,1.2,0,0,1-1-.4,1.3,1.3,0,0,1-.1-.6l.6-11.9c.4-9.7.8-19.5,1-29.2.1-1.4.1-2.7.2-4,.1-8.3-.4-16.8.6-25,.1-.8.7-9.1.7-9.1,18.8-1.3,37.7-2,56.5-2h3.1L48.2,264c-4-.5-8-.9-11.9-1.5s-6.4-1.2-9.6-1.7a10.1,10.1,0,0,0-3,0c-2.9,0-6.1-1.2-9-1.8H14l-1.6-.7a4.6,4.6,0,0,1-1.4-3.4v-1.4c0-3.4-.4-6.8-.6-10.2s0-8,0-12c.1-9.7.1-19.4.1-29.1,0-2.2-.1-4.5-.1-6.7,0-7.4,0-14.8-.1-22.2,0-2.6.2-5.2-.5-7.7s-.2-5.7.1-8.2a3.5,3.5,0,0,1,.5-1.8,4.4,4.4,0,0,1,1.5-.8c4.2-1.4,8.7-1.2,13.1-1.4a93,93,0,0,0,12.8-1.5l1.7-.4c-6.8-.6-13.6-1.2-20.2-3a17.6,17.6,0,0,1-6-2.4l-1-.7a7.6,7.6,0,0,1-2.8-5.5,1.7,1.7,0,0,1,.1-.7,2,2,0,0,1,.1-.7c.4-1.3.1-2.8.1-4.2l-.2-6.6c0-4.1-.1-8.1-.2-12.1a92.3,92.3,0,0,0-.7-11.8,39.2,39.2,0,0,1-.2-5.9,35.7,35.7,0,0,1,.2-7.3,10.2,10.2,0,0,1,1-3.8h0c.6-1.2,1.6-2.4,3.1-2.3a48.9,48.9,0,0,0,6.6-.5c4.8-.5,9.7-.9,14.6-1.2,9.9-.7,19.9-1,29.9-1.2H79.3c4.4,0,8.8-.2,13.2,0-9.4-.4-18.8-1.1-28.2-1.9L49.7,78.1c-8.4-.9-17-.8-25.1-1.6-4.6-.4-9.1-.7-13.7-.8h-.8a1.1,1.1,0,0,1-.8-.2c-.2-.2-.2-.5-.3-.7a128.7,128.7,0,0,1-1.4-15c-.1-4.1-.2-8.2-.4-12.3-.2-7.2-.5-14.4-.8-21.6A13.9,13.9,0,0,1,19.1,11.4c189.2-15,378-15.4,566.4,0a13.9,13.9,0,0,1,12.7,14.7c-.6,10-1.1,19.9-1.6,29.9L596,69.1c-.2,2.6-.2,5.2-.4,7.9a12.4,12.4,0,0,1-.5,3.8c-.7,2.3-.6,4.8-1.1,7.1a4.1,4.1,0,0,1-1,2.1,5,5,0,0,1-2.1.9h-.2a161.5,161.5,0,0,1-26,3.9l-4.8.3,30.3,3a4.8,4.8,0,0,1,2.7.8,3.9,3.9,0,0,1,.8,2c.2.7.3,1.4.5,2.1a62.8,62.8,0,0,1,.4,7.5,112.3,112.3,0,0,1-1.7,14.2c-.5,2.2-1.9,2.4-3.5,2.1l-2.8-.6c-2.4-.4-4.8-.6-7.2-.8-4.9-.4-9.7-.5-14.6-.5h-9.4l-39.4.5h.5c14.8,3.2,30.2,1.5,45.1,3.4,6.1.8,12.1,2.2,18.2,1.8,2.2-.1,4.6-.5,6.8.1s3.1,2,4.2,3.7a13.1,13.1,0,0,1,1.7,6.2c.1,1.3.1,2.6.2,3.8.4,7.1-.2,14.1-.6,21.2-.1,1.3-.1,2.5-.2,3.8a4.4,4.4,0,0,1-.8,2.5,3.1,3.1,0,0,1-1.7.9h0a15.5,15.5,0,0,1-4.2.5h-1.3c-1.7.2-3.4.7-5,1l-4.9.4,1.9.4,13.6,3.2a2.9,2.9,0,0,1,1.6.7c1.8,1.6,1.4,7.3,1.5,9.4.4,4.1.5,8.2.6,12.3v5.9c0,3.4,0,6.9-.1,10.3v7.1l-.3,29.9c-.1,4.4-.1,8.9-.1,13.3s.6,12.9-1.8,17.2a5.3,5.3,0,0,1-3.3,2.3,12.6,12.6,0,0,1-3.8.6l-61.5,4.1h.8q34.6.8,69.2,4.1c1.1.1,1.4,2.5,1.6,3.2a59.9,59.9,0,0,1,1,7.4,6.2,6.2,0,0,0,.1,1.3c.6,7.8.7,15.7.8,23.6v.4c0,.8.1,1.5.1,2.3a22.6,22.6,0,0,0,.1,2.6c0,4.5.3,9.5-.2,14a15.8,15.8,0,0,1-.9,4.2,6.4,6.4,0,0,1-.8,1.9,9.8,9.8,0,0,1-4.2,2.7l-1.7.5a113.6,113.6,0,0,1-11.6,2.4l1.2.3,12.3,2.3a9.6,9.6,0,0,1,4.2,1.7,6.5,6.5,0,0,1,1.5,1.8,14,14,0,0,1,.9,2.9c0,.3.1.6.1,1,.4,3.3-.1,6.6.3,9.9a41.9,41.9,0,0,1,.3,5c.2,3.3.3,6.6.5,9.9s.3,5.9.4,8.8A13.9,13.9,0,0,1,585.5,420.4Z" fill="url(#Áåçûìÿííûé_ãðàäèåíò_3-2)"/><path d="M596,69.1c-.2,2.6-.2,5.2-.4,7.9a12.4,12.4,0,0,1-.5,3.8c-.7,2.3-.6,4.8-1.1,7.1a4.1,4.1,0,0,1-1,2.1,5,5,0,0,1-2.1.9h-.2a161.5,161.5,0,0,1-26,3.9l-4.8.3,30.3,3a4.8,4.8,0,0,1,2.7.8,3.9,3.9,0,0,1,.8,2c.2.7.3,1.4.5,2.1-13.2-.8-26.4-1.2-39.9-1.3a2398.2,2398.2,0,0,0-288.6,15.5c-47.9,5.4-95.7,11.1-143.8,15C85,135.1,47,139.4,9.6,139.1a2,2,0,0,1,.1-.7c.4-1.3.1-2.8.1-4.2l-.2-6.6c15.4-1.4,30.9-2.2,46.4-3.3,27.3-2.1,54.6-4.4,81.8-7.2,97.2-9.8,193.8-23.5,291.5-28.2l21.4-1c-18.3-1-36.5-2-54.8-2.7-24.4-1.1-48.9-2.4-73.4-2.2s-50.9,2.1-76.4,2.7C195.5,87.1,145,90,94.3,90.7c-25,.3-51,1.8-75.8-2.4L9.7,86.7c.6-1.2,1.6-2.4,3.1-2.3a48.9,48.9,0,0,0,6.6-.5c4.8-.5,9.7-.9,14.6-1.2,9.9-.7,19.9-1,29.9-1.2H79.3c4.4,0,8.8-.2,13.2,0-9.4-.4-18.8-1.1-28.2-1.9L49.7,78.1c-8.4-.9-17-.8-25.1-1.6-4.6-.4-9.1-.7-13.7-.8h-.8a1.1,1.1,0,0,1-.8-.2c-.2-.2-.2-.5-.3-.7a128.7,128.7,0,0,1-1.4-15c-.1-4.1-.2-8.2-.4-12.3,8.6-1.1,17.3-2,26-2.4,28.7-1.4,57.4-1.1,86-2.5,49.6-2.3,99.9-6.1,149.6-3.1s98.3,9,147.4,13.6c51.3,4.8,102.6,9.2,153.9,13.7Zm-2.1,229.8c-.2-.7-.5-3.1-1.6-3.2q-34.5-3.3-69.2-4.1h-.8l61.5-4.1a12.6,12.6,0,0,0,3.8-.6,5.3,5.3,0,0,0,3.3-2.3c2.4-4.3,1.8-12.4,1.8-17.2s0-8.9.1-13.3c-94.4-2.9-188.8-7-283-13.7l12-2.8c35.8-8.3,71.8-12.8,108.6-14.6,54.2-2.6,108.8-.2,162.7-5.9.1-3.4.1-6.9.1-10.3-55.7,1.8-111.6-.4-167.3,1.3a641.6,641.6,0,0,0-104.4,11.6c-25.9,5-51.6,11.2-77.5,15.7-33-2.8-65.9-5.8-98.8-9.3-24.9-2.6-49.9-5.5-74.7-8.7l-3.9-.4c14.2-3.7,28.8-6.4,43.2-8.7,39.5-6.1,79.6-8.8,119.4-12.3,85.3-7.6,170.7-13.5,256.2-18.8,35.9-2.2,71.7-4.1,106.7-11.3.4-7.1,1-14.1.6-21.2-.1-1.2-.1-2.5-.2-3.8-30.9-4-62.1-3.6-93.4-2.3-43.5,1.9-87,4-130.5,7.1-85.6,6-172,11.5-257.1,23.3-35.1,4.8-68.9,12.9-101.1,26.5,0,2.2.1,4.5.1,6.7,0,9.7,0,19.4-.1,29.1,0,4-.2,8,0,12s.6,6.8.6,10.2v1.4c8,2,16.2,3.3,24,4.9,22.3,4.7,44.8,7.9,67.4,11q68.9,9.3,138.1,16.1c90.8,8.9,182.2,13.3,273.3,16.8q40.5,1.5,81.1,2.7A59.9,59.9,0,0,0,593.9,298.9Zm1.9,69.4a6.5,6.5,0,0,0-1.5-1.8,9.6,9.6,0,0,0-4.2-1.7l-12.3-2.3-1.2-.3a113.6,113.6,0,0,0,11.6-2.4l1.7-.5a9.8,9.8,0,0,0,4.2-2.7,6.4,6.4,0,0,0,.8-1.9,15.8,15.8,0,0,0,.9-4.2c.5-4.5.2-9.5.2-14a22.6,22.6,0,0,1-.1-2.6c-75.2,2.7-150.3,4.3-225.6.6-82.6-4.1-165.3-12-247.6-19.4-23.6-2.2-47-4.6-70.6-6.3-13.6-.9-28.3-2.4-42.7-2.3-.2,9.7-.6,19.5-1,29.2,10.1,2.7,20.5,4.6,30,6.2,21.2,3.5,42.4,6.3,63.8,8.4,41.8,4.1,83.6,7.5,125.5,11.1,23.9,2,47.7,4,71.6,5.8-17.4,1.5-34.8,2.8-52.2,3.8-44.9,2.6-89.7,6.6-134.7,8.7-34.7,1.7-69.3.9-103.9,0a2.8,2.8,0,0,0-.1.9l-.9,9.8-.3,3.5c33,5.8,67.3,5.5,100.8,4,45-1.9,89.5-6.6,134.1-13,46.9-6.8,95.1-9.2,142.4-12l2.6-.2c31,1.5,62,2.4,93,2.3,38.9,0,77.8-.9,116.6-3.8A14,14,0,0,0,595.8,368.3Z" fill="url(#Áåçûìÿííûé_ãðàäèåíò_3-3)"/><path d="M134.1,396.9a19.6,19.6,0,0,1-9.6,2.3,7.2,7.2,0,0,1,2.3,2.3,5.8,5.8,0,0,1,0,6.1c-2.4,3.8-7.4,3.5-11.2,2.4a10.5,10.5,0,0,1-6.8-9.5,5.4,5.4,0,0,1,5.1-5.2,39.4,39.4,0,0,1-6.8-5.4c-5.5-5.4-9.4-14.9-6.7-22.3,1.2-3.4,5.3-6.6,9.2-5.1a69.7,69.7,0,0,1,13.4,7.3c1.2.7,2.4,1.5,3.6,2.1s2.9,1.3,1.2.6c4.7,1.9,8,4,10.6,8.5S139.9,394,134.1,396.9ZM92.7,352l-.6-1.1a7.8,7.8,0,0,0-2.9-2.8,7.2,7.2,0,0,0-4.1-1.1,9.2,9.2,0,0,0-3.8.9,6.3,6.3,0,0,0-2.9,2.2,8.1,8.1,0,0,0-1.1,6.9,8,8,0,0,0,2.9,4.1,8.1,8.1,0,0,0,4.9,1.7,18.8,18.8,0,0,0,3.3-.5C92.7,361.2,95.3,355.8,92.7,352Zm402.7-53.5a9.6,9.6,0,0,0-9.1-6.7c-1.4,0-2.7-.4-4.3-.4s-4.8,1-7.1,2-7.3,3.6-9.2,7.2-1.5,8.4,1.7,11l-1.5,1.5c-2.4,1.9-.6,6.5,2.6,6.2,1.1-.1,2.2.2,3.3.2a13.2,13.2,0,0,0,4.4-.8,35.9,35.9,0,0,0,3.5-1.2,4.7,4.7,0,0,0,2.1-1.6c.1-.2,1.4-2.1.6-1.3a3.5,3.5,0,0,0,.8-1.3,15.6,15.6,0,0,0,6.6-3.5l1.3-.9C494.5,306.4,496.6,302.7,495.4,298.5Zm-12.1-18.1a7.5,7.5,0,0,0-2.6-.5,10.7,10.7,0,0,0-2.7,1.2,1.9,1.9,0,0,0-.8,2.5,2,2,0,0,0,2.5,1.2,8.2,8.2,0,0,0,2.6-.6,9.3,9.3,0,0,0,1.6-1.8A1.2,1.2,0,0,0,483.3,280.4Zm20-24.7c-.3-.5-.5-1.1-.8-1.7-5.3-3.6-9.6-4-12.8-1.1A12,12,0,0,0,488,255c-1.8,3.2-1,7.9,2.5,9.7a8.1,8.1,0,0,0,6.1.8,20.5,20.5,0,0,0,3.1-1.3l1.6-1.1a6,6,0,0,0,1.6-2.5A6.9,6.9,0,0,0,503.3,255.7ZM482.1,102.9a10.1,10.1,0,0,0-1.9-4.5,14.8,14.8,0,0,0-4.4-3.4,26.3,26.3,0,0,0-4.1-2.1,19.9,19.9,0,0,0-4.9-.6,5.3,5.3,0,0,0-5.4,3.9c-4-3.7-10.2-5.8-15.1-6.8s-18.5-.7-17.5,7.7c.9,6.5,5.8,10.4,11.3,13.7s10,5.8,15.6,5.1,10.1,1.2,12.3-3.8a8.3,8.3,0,0,0,.6-4,11.5,11.5,0,0,0,3.6,2c1.9.5,3.9,0,5.8-.3S482.7,105.5,482.1,102.9Zm-63.6,4.3a22.4,22.4,0,0,0-3.6-3.3,11.7,11.7,0,0,0-5.2-1.6,17.1,17.1,0,0,0-5-.6,7.9,7.9,0,0,0-4,2.2,2.3,2.3,0,0,0-.6,2.2,7.7,7.7,0,0,0,1.8,3.6c1.2,1.3,3.4,1.8,5,2.4a13.7,13.7,0,0,0,4.9,1.3,32.6,32.6,0,0,0,5.3-.9A3.2,3.2,0,0,0,418.5,107.2Zm60.2,37.9a7.7,7.7,0,0,0-2.5-4.1c-1.7-1.7-3.8-2.1-6.1-2.7a4.6,4.6,0,0,0-4.8,1.6,4.4,4.4,0,0,0-.4,5l.9,1.9a8.2,8.2,0,0,0,2.9,3.2,8.4,8.4,0,0,0,4.2,1.6,5.8,5.8,0,0,0,4.7-2.1A5.4,5.4,0,0,0,478.7,145.1Zm-115.9,146c-7.6-4.2-20.2-2.9-26.2,2.8-3.7,3.5-3.9,10.2,0,13.8,8.8,7.9,24.1,4.5,29.6-5.2l.4-.3C370.8,298.4,367.8,292,362.8,291.1Zm-41.3-6.2c-2.2-1.1-3.9-2-6.4-1.5a30.1,30.1,0,0,0-4.9,1.4,4.3,4.3,0,0,0-3.1,4.7c.3,2.2,2,3.4,4.3,3.7a42.4,42.4,0,0,0,5.1.3c2.5-.1,4-1.4,5.7-2.9A3.6,3.6,0,0,0,321.5,284.9ZM89.4,71c-3.4-4.8-10.7-3.9-15-.9a30,30,0,0,0-5.3,4.1,8.2,8.2,0,0,0-2.4,4.6l-.3,2.1c.1-.8.1-.8-.1.2a6,6,0,0,0,5.9,7.4H73a10,10,0,0,0,6.8-.8l4.3-2.5C88.8,82.3,93.1,76.3,89.4,71ZM60.9,74.1a9.1,9.1,0,0,0-5,2.7,40.2,40.2,0,0,0-3,4.2,5.1,5.1,0,0,0,1.9,6.9,5.3,5.3,0,0,0,7.1-1.8l1-1.4a.1.1,0,0,1,.1-.1,4.6,4.6,0,0,1,.7-.7,9.7,9.7,0,0,0,1.8-3.1l.6-1.6C67.3,76.2,63.8,73.2,60.9,74.1Zm56.4-22.6c-1.4-.2-3.1-.4-4.3.4a8.7,8.7,0,0,0-2.2,2.1,3.5,3.5,0,0,0-.5,4,3.5,3.5,0,0,0,3.8,1.5,10.2,10.2,0,0,0,3-.8,6.6,6.6,0,0,0,2.4-3.3A3.2,3.2,0,0,0,117.3,51.5Zm139,113.9a5.9,5.9,0,0,1,.4-.8c1.5-3.5,1.1-7.4-2.6-9.5l-1.5-.7c-3.7-3-7.8-3.8-12.7-3.4s-9.1,2.7-13.4,4.6c-6,2.6-7.8,10.8-5.5,16.2a16,16,0,0,0,3,4.2,63.4,63.4,0,0,0-9.8,5.3,13.4,13.4,0,0,0-3.4,3.3c-3.2,2.8-4.5,6.5-1.4,11.5,5.8,9.5,22.6,7,31.4,3.8,5.3-2,11.3-4.8,14.1-9.9a11.8,11.8,0,0,0-4.7-15.8A14.8,14.8,0,0,0,256.3,165.4Zm-59,22.1c-1.5-.3-2.3.4-3.5,1h-.7l-1.3.4a3.1,3.1,0,0,0-2.1,4.2,3.2,3.2,0,0,0,4.6,1.5,11.7,11.7,0,0,0,2.8-1.7c1-.8,2.2-1.8,2-3.2A2.6,2.6,0,0,0,197.3,187.5Zm-18.9-11.2-.8-.3c-4.1-3.1-10.2-1.3-13.7,1.9a15.5,15.5,0,0,0-5.4,8.8c-.4,2.5-.1,4.8,1.8,6.7a7.3,7.3,0,0,0,6.9,1.8c5.5-1.9,13-5.6,13.7-11.7a6.4,6.4,0,0,1,.2-.7C182,180.7,180.6,177.3,178.4,176.3ZM561.5,396a8.5,8.5,0,0,0-4-5.1,9.4,9.4,0,0,0-10.7,1.3l-4.5,4a7.7,7.7,0,0,0-.6,10.4,8.2,8.2,0,0,0,10.5,2.1l5.3-3A8.6,8.6,0,0,0,561.5,396Z" fill="#eb924d"/><path d="M135.9,393.2a19.6,19.6,0,0,1-9.6,2.3,7.2,7.2,0,0,1,2.3,2.3,6.1,6.1,0,0,1,0,6c-2.4,3.9-7.4,3.6-11.2,2.4a10.2,10.2,0,0,1-6.8-9.4,5.4,5.4,0,0,1,5.1-5.2,40.4,40.4,0,0,1-6.8-5.4c-5.5-5.4-9.4-14.9-6.8-22.3,1.2-3.5,5.4-6.6,9.3-5.1a69.7,69.7,0,0,1,13.4,7.3l3.6,2.1,1.2.5c4.7,2,8,4.1,10.5,8.6S141.7,390.3,135.9,393.2ZM94.5,348.3l-.6-1.1a7.7,7.7,0,0,0-7-3.9,9.2,9.2,0,0,0-3.8.9,5.7,5.7,0,0,0-2.9,2.2,8,8,0,0,0-1.1,6.9,8.4,8.4,0,0,0,2.9,4.1,7.9,7.9,0,0,0,4.9,1.7,18.8,18.8,0,0,0,3.3-.5C94.5,357.5,97.1,352.1,94.5,348.3Zm401.8-51.8a9.5,9.5,0,0,0-9-6.7c-1.5,0-2.7-.4-4.3-.4s-4.8,1-7.2,2-7.2,3.6-9.2,7.2-1.4,8.4,1.8,11.1l-1.6,1.4c-2.3,1.9-.5,6.5,2.7,6.2,1.1-.1,2.2.2,3.3.2a13.6,13.6,0,0,0,4.4-.8c1.1-.4,2.4-.7,3.5-1.2a4.5,4.5,0,0,0,2-1.6c.2-.2,1.5-2.1.7-1.3a2.4,2.4,0,0,0,.7-1.3,15.4,15.4,0,0,0,6.7-3.5l1.2-.9C495.4,304.4,497.5,300.7,496.3,296.5Zm-12-18.1a8,8,0,0,0-2.6-.5,9.3,9.3,0,0,0-2.7,1.2,2,2,0,0,0-.9,2.5,2.1,2.1,0,0,0,2.5,1.2,7.1,7.1,0,0,0,2.6-.6,7.3,7.3,0,0,0,1.7-1.8A1.2,1.2,0,0,0,484.3,278.4Zm19.9-24.7c-.2-.5-.4-1.1-.7-1.7-5.3-3.6-9.6-4-12.8-1.1A6.8,6.8,0,0,0,489,253c-1.9,3.2-1.1,7.9,2.5,9.7a7.9,7.9,0,0,0,6,.8,21.5,21.5,0,0,0,3.2-1.3l1.5-1.1a5.1,5.1,0,0,0,1.6-2.5A6.9,6.9,0,0,0,504.2,253.7ZM483.9,99.1a10.2,10.2,0,0,0-1.9-4.4,14.8,14.8,0,0,0-4.4-3.4,19.8,19.8,0,0,0-4.1-2.1,20.1,20.1,0,0,0-5-.6,5.1,5.1,0,0,0-5.3,3.9c-4-3.7-10.2-5.8-15.2-6.8s-18.4-.7-17.4,7.6c.9,6.6,5.8,10.5,11.3,13.8s10,5.8,15.6,5.1,10.1,1.2,12.3-3.9a6.8,6.8,0,0,0,.5-3.9,13.3,13.3,0,0,0,3.7,2c1.9.5,3.9,0,5.8-.3S484.5,101.8,483.9,99.1Zm-63.6,4.3a35.9,35.9,0,0,0-3.6-3.2,11.7,11.7,0,0,0-5.2-1.6,17.1,17.1,0,0,0-5-.6,7.9,7.9,0,0,0-4,2.2,2.3,2.3,0,0,0-.6,2.2,7.7,7.7,0,0,0,1.8,3.6c1.2,1.2,3.4,1.7,5,2.4a13.7,13.7,0,0,0,4.9,1.3,24.7,24.7,0,0,0,5.3-1A3.2,3.2,0,0,0,420.3,103.4Zm60.1,38a7.2,7.2,0,0,0-2.4-4.2c-1.7-1.6-3.9-2-6.1-2.6a4.8,4.8,0,0,0-4.9,1.6,4.6,4.6,0,0,0-.3,5l.9,1.9a8.8,8.8,0,0,0,2.9,3.2,8.4,8.4,0,0,0,4.2,1.6,6.3,6.3,0,0,0,4.7-2.1A5.3,5.3,0,0,0,480.4,141.4Zm-115.8,146c-7.6-4.3-20.2-3-26.2,2.7-3.7,3.6-3.9,10.3,0,13.9,8.8,7.8,24.1,4.5,29.6-5.2l.4-.3C372.6,294.7,369.6,288.3,364.6,287.4Zm-41.3-6.2c-2.2-1.1-3.9-2-6.4-1.5a30.1,30.1,0,0,0-4.9,1.4,4.2,4.2,0,0,0-3.1,4.7c.3,2.2,2,3.4,4.3,3.6a42.1,42.1,0,0,0,5.1.4c2.5-.1,4-1.5,5.7-2.9A3.6,3.6,0,0,0,323.3,281.2ZM90.4,68.8c-3.3-4.8-10.6-3.9-14.9-1a42.6,42.6,0,0,0-5.4,4.1,9.3,9.3,0,0,0-2.4,4.6l-.3,2.1q.3-1.2,0,.3a6,6,0,0,0,5.8,7.4h.9a9.6,9.6,0,0,0,6.8-.9A47.7,47.7,0,0,0,85.2,83C89.8,80.1,94.1,74,90.4,68.8ZM62,71.8c-1.9.6-3.8,1.2-5,2.8a39.1,39.1,0,0,0-3,4.1,5.2,5.2,0,0,0,1.9,7A5.5,5.5,0,0,0,63,83.9a7.1,7.1,0,0,1,1-1.4h.1l.6-.8a7.3,7.3,0,0,0,1.9-3l.6-1.7C68.4,73.9,64.9,71,62,71.8Zm56.3-22.5a6.1,6.1,0,0,0-4.2.3,14.7,14.7,0,0,0-2.2,2.1,3.2,3.2,0,0,0-.5,4,3.5,3.5,0,0,0,3.8,1.5,8.2,8.2,0,0,0,3-.7,6.9,6.9,0,0,0,2.4-3.4A3.1,3.1,0,0,0,118.3,49.3ZM258.1,161.6l.4-.8c1.5-3.4,1.1-7.3-2.6-9.4l-1.5-.7c-3.7-3-7.8-3.8-12.7-3.4s-9.1,2.7-13.4,4.6c-6,2.6-7.8,10.8-5.5,16.1a13.3,13.3,0,0,0,3,4.2,73.1,73.1,0,0,0-9.8,5.4,11.9,11.9,0,0,0-3.4,3.3c-3.2,2.8-4.5,6.5-1.4,11.5,5.8,9.5,22.6,7,31.4,3.8,5.3-2,11.3-4.8,14.1-9.9a11.7,11.7,0,0,0-4.8-15.8A14.5,14.5,0,0,0,258.1,161.6Zm-59.8,23.8c-1.4-.4-2.3.3-3.5.9h-.3l-.3.2-1.3.3a3.1,3.1,0,0,0-2.1,4.3c.7,1.8,2.8,2.3,4.6,1.5a12.7,12.7,0,0,0,2.7-1.8c1-.8,2.2-1.8,2.1-3.2A2.4,2.4,0,0,0,198.3,185.4Zm-18.8-11.2-.8-.4c-4.1-3-10.3-1.3-13.8,1.9s-4.8,5.4-5.3,8.8-.2,4.9,1.8,6.7a6.9,6.9,0,0,0,6.8,1.8c5.5-1.8,13-5.6,13.7-11.7l.3-.7C183,178.5,181.7,175.1,179.5,174.2ZM563.3,392.3a8.5,8.5,0,0,0-4-5.1,9.2,9.2,0,0,0-10.7,1.3l-4.5,4a7.7,7.7,0,0,0-.6,10.4A8.4,8.4,0,0,0,554,405l5.3-3A8.6,8.6,0,0,0,563.3,392.3Z" fill="url(#Áåçûìÿííûé_ãðàäèåíò_3-4)"/><path d="M134.1,395.6a19.6,19.6,0,0,1-9.6,2.3,7.2,7.2,0,0,1,2.3,2.3,5.6,5.6,0,0,1,0,6c-2.4,3.9-7.4,3.6-11.2,2.4a10.2,10.2,0,0,1-6.8-9.4,5.4,5.4,0,0,1,5.1-5.2,44.8,44.8,0,0,1-6.8-5.4c-5.5-5.4-9.4-14.9-6.7-22.3,1.2-3.5,5.3-6.6,9.2-5.1a69.7,69.7,0,0,1,13.4,7.3l3.6,2.1,1.2.5c4.7,2,8,4.1,10.6,8.6S139.9,392.7,134.1,395.6ZM92.7,350.7l-.6-1.1a7.7,7.7,0,0,0-7-3.9,9.2,9.2,0,0,0-3.8.9,5.7,5.7,0,0,0-2.9,2.2,8,8,0,0,0-1.1,6.9,8.4,8.4,0,0,0,2.9,4.1,8.1,8.1,0,0,0,4.9,1.7,18.8,18.8,0,0,0,3.3-.5C92.7,359.9,95.3,354.5,92.7,350.7Zm402.7-52.9a9.6,9.6,0,0,0-9.1-6.7c-1.4,0-2.7-.4-4.3-.4s-4.8,1-7.1,2-7.3,3.6-9.2,7.2-1.5,8.4,1.7,11l-1.5,1.4c-2.4,2-.6,6.6,2.6,6.3,1.1-.1,2.2.2,3.3.2a13.2,13.2,0,0,0,4.4-.8,35.9,35.9,0,0,0,3.5-1.2,5.6,5.6,0,0,0,2.1-1.6c.1-.2,1.4-2.1.6-1.3a3.5,3.5,0,0,0,.8-1.3,15.6,15.6,0,0,0,6.6-3.5l1.3-.9C494.5,305.7,496.6,302,495.4,297.8Zm-12.1-18.1a7.5,7.5,0,0,0-2.6-.5,15.3,15.3,0,0,0-2.7,1.1,2.1,2.1,0,0,0,1.7,3.8,8.2,8.2,0,0,0,2.6-.6,9.3,9.3,0,0,0,1.6-1.8A1.2,1.2,0,0,0,483.3,279.7Zm20-24.7-.8-1.7c-5.3-3.6-9.6-4-12.8-1.1a16.3,16.3,0,0,0-1.7,2c-1.8,3.3-1,8,2.5,9.8a8.1,8.1,0,0,0,6.1.8,20.5,20.5,0,0,0,3.1-1.3l1.6-1.2a5.1,5.1,0,0,0,1.6-2.4A6.9,6.9,0,0,0,503.3,255ZM482.1,101.5a10.2,10.2,0,0,0-1.9-4.4,14.8,14.8,0,0,0-4.4-3.4,13.6,13.6,0,0,0-9-2.7,5.2,5.2,0,0,0-5.4,3.9c-4-3.7-10.2-5.8-15.1-6.8s-18.5-.7-17.5,7.6c.9,6.6,5.8,10.5,11.3,13.8s10,5.8,15.6,5.1,10.1,1.2,12.3-3.9a7.9,7.9,0,0,0,.6-3.9,11.5,11.5,0,0,0,3.6,2c1.9.5,3.9,0,5.8-.3S482.7,104.2,482.1,101.5Zm-63.6,4.3a27.4,27.4,0,0,0-3.6-3.2,11.7,11.7,0,0,0-5.2-1.6,17.1,17.1,0,0,0-5-.6,7.9,7.9,0,0,0-4,2.2,2.3,2.3,0,0,0-.6,2.2,7.7,7.7,0,0,0,1.8,3.6c1.2,1.2,3.4,1.7,5,2.4a13.7,13.7,0,0,0,4.9,1.3,24.7,24.7,0,0,0,5.3-1A3.2,3.2,0,0,0,418.5,105.8Zm60.2,38a7.9,7.9,0,0,0-2.5-4.2c-1.7-1.6-3.8-2-6.1-2.6a4.6,4.6,0,0,0-4.8,1.6,4.4,4.4,0,0,0-.4,5l.9,1.9a9.8,9.8,0,0,0,2.9,3.2,8.4,8.4,0,0,0,4.2,1.6,6.1,6.1,0,0,0,4.7-2.1A5.4,5.4,0,0,0,478.7,143.8Zm-115.9,146c-7.6-4.3-20.2-3-26.2,2.7-3.7,3.6-3.9,10.3,0,13.9,8.8,7.8,24.1,4.5,29.6-5.2l.4-.3C370.8,297.1,367.8,290.7,362.8,289.8Zm-41.3-6.2c-2.2-1.1-3.9-2-6.4-1.5a30.1,30.1,0,0,0-4.9,1.4,4.3,4.3,0,0,0-3.1,4.7c.3,2.2,2,3.4,4.3,3.6a42.1,42.1,0,0,0,5.1.4c2.5-.1,4-1.5,5.7-2.9A3.6,3.6,0,0,0,321.5,283.6ZM89.4,70.2c-3.4-4.8-10.7-3.9-15-.9a30,30,0,0,0-5.3,4.1A8.2,8.2,0,0,0,66.7,78l-.3,2.1c.1-.8.1-.8-.1.2a6.1,6.1,0,0,0,5.9,7.5H73a10,10,0,0,0,6.8-.8l4.3-2.5C88.8,81.5,93.1,75.5,89.4,70.2ZM60.9,73.3a9.1,9.1,0,0,0-5,2.7,40.2,40.2,0,0,0-3,4.2,5.1,5.1,0,0,0,1.9,6.9,5.3,5.3,0,0,0,7.1-1.8l1-1.4H63a4.6,4.6,0,0,1,.7-.7A9.7,9.7,0,0,0,65.5,80l.6-1.6C67.3,75.4,63.8,72.4,60.9,73.3Zm56.4-22.6c-1.4-.2-3.1-.4-4.3.4a8.7,8.7,0,0,0-2.2,2.1,3.5,3.5,0,0,0-.5,4,3.5,3.5,0,0,0,3.8,1.5,10.2,10.2,0,0,0,3-.8,6.6,6.6,0,0,0,2.4-3.3A3.2,3.2,0,0,0,117.3,50.7ZM256.3,164a5.9,5.9,0,0,0,.4-.8c1.5-3.4,1.1-7.3-2.6-9.4l-1.5-.7c-3.7-3-7.8-3.8-12.7-3.4s-9.1,2.7-13.4,4.6c-6,2.6-7.8,10.8-5.5,16.1a13.3,13.3,0,0,0,3,4.2,73.1,73.1,0,0,0-9.8,5.4,11.9,11.9,0,0,0-3.4,3.3c-3.2,2.8-4.5,6.5-1.4,11.5,5.8,9.5,22.6,7,31.4,3.8,5.3-2,11.3-4.8,14.1-9.9a11.8,11.8,0,0,0-4.7-15.8A14.7,14.7,0,0,0,256.3,164Zm-59,22.8c-1.5-.4-2.3.3-3.5.9h-.3l-.4.2-1.3.3a3.2,3.2,0,0,0-2.1,4.3,3.4,3.4,0,0,0,4.6,1.5,16.7,16.7,0,0,0,2.8-1.8c1-.8,2.2-1.8,2-3.2A2.5,2.5,0,0,0,197.3,186.8Zm-18.9-11.2-.8-.4c-4.1-3.1-10.2-1.3-13.7,1.9a15.5,15.5,0,0,0-5.4,8.8c-.4,2.5-.1,4.9,1.8,6.7a7.1,7.1,0,0,0,6.9,1.8c5.5-1.9,13-5.6,13.7-11.7a6.4,6.4,0,0,0,.2-.7C182,179.9,180.6,176.5,178.4,175.6ZM561.5,394.7a8.5,8.5,0,0,0-4-5.1,9.2,9.2,0,0,0-10.7,1.3l-4.5,4a7.7,7.7,0,0,0-.6,10.4,8.4,8.4,0,0,0,10.5,2.1l5.3-3A8.6,8.6,0,0,0,561.5,394.7Z" fill="url(#Áåçûìÿííûé_ãðàäèåíò_3-5)"/><path d="M10.6,358.1a24.5,24.5,0,0,0-.4,3.8v1.8a6.4,6.4,0,0,0,.2.7,13.4,13.4,0,0,1,0,2c.1.6.1,1.1.2,1.7s-2-1-2.1-1.7c0-2.6,0-5.2.1-7.8,0-.9-.2-3,.2-3.9s.3-.5,1.6-1a16.6,16.6,0,0,1,3.7-1.4,31.8,31.8,0,0,1,4.3-.6L34,350.2l-4-.3h3.3l3.2-.2a12.2,12.2,0,0,0,2.7-.1c-7.2,1.2-14.4,2.4-21.4,4.3a25.8,25.8,0,0,0-5.5,2,2.3,2.3,0,0,0-1.2,1A2.9,2.9,0,0,0,10.6,358.1Z" fill="#eb924d"/><path d="M11.2,166.2v.2c.1.6.3,1.2.4,1.8s-.2,3.7-.1,5.5c.1,3.5.9,7.1,3.4,9.7s7.5,4.1,11.8,4.8l-10.1.2a4.2,4.2,0,0,0-1.9.3c-1.1.6-1.4,1.9-1.7,3a77.1,77.1,0,0,0-1.7,20.9,15,15,0,0,0,5,1.8c-2.3.1-3.8,3.1-3.3,5.4s2.5,4,4.4,5.5c-2.9.1-4.8,3.1-5.3,6s-.3,4.6-.7,6.9a8.1,8.1,0,0,0,0,2.2c.1,1-.1,2.1-.1,3.1a45.4,45.4,0,0,0,.7,8.2c.3,1.5.7,3,1.1,4.5a19.5,19.5,0,0,0,.8,2.2c0,.2.1.3.1.5l-1.6-.7c-1.3-1-1.4-3-1.4-4.8,0-3.4-.4-6.8-.6-10.2s0-8,0-12c.1-9.7.1-19.4.1-29.1s-.1-19.3-.2-28.9c0-2.6.2-5.2-.5-7.7s-.2-5.7.1-8.2a3.5,3.5,0,0,1,.5-1.8,4.4,4.4,0,0,1,1.5-.8c4.2-1.4,8.7-1.2,13.1-1.4a93,93,0,0,0,12.8-1.5l3.2-.3c-7,1.4-14,2.7-21.1,3.9a21.8,21.8,0,0,0-4.4,1.1,6.3,6.3,0,0,0-3.3,2.7,9.3,9.3,0,0,0-.9,4C11.3,164.2,11.2,165.2,11.2,166.2Z" fill="#eb924d"/><path d="M67.4,266.4c-13.9.7-27.7,3.1-41.7,3.6-3.5.1-7,.1-10.3,1.4s-4.5,5.4-1.8,7.1l1.3.4a32.9,32.9,0,0,0,7.7.6c-3.3.5-6.3,2.2-9.3,3.8a4.5,4.5,0,0,0-1.4,1,5.2,5.2,0,0,0-.6,1.6c-.3,1.5-.9,3-.7,4.5a10.1,10.1,0,0,1,0,3c-.2,4-.2,8.1,0,12.1a3.4,3.4,0,0,0,.2,1.4,5.3,5.3,0,0,0,1.3,1.3l3.5,2.4.2.2a.6.6,0,0,1-.2.6c-1.8,1.9-3.8,3.7-4.7,6.2s-1.1,2.1-1.2,3.4a27.2,27.2,0,0,0,.7,9,6.2,6.2,0,0,0,1.6,3.1,6.4,6.4,0,0,0,2.6,1.3,116.7,116.7,0,0,0,12,2.9l-15.8.4c-.1,0-.5,6.1-.6,6.6a2.8,2.8,0,0,0,0,2.2,5.3,5.3,0,0,0,1.6,2.3l-2.9-.2a1.2,1.2,0,0,1-1-.4,1.3,1.3,0,0,1-.1-.6c.7-15,1.5-30.1,1.8-45.1.1-8.3-.4-16.8.6-25,.1-.8.7-9.1.7-9.1C29.7,267.1,48.6,266.4,67.4,266.4Z" fill="#eb924d"/><path d="M70.5,266.3Z" fill="#eb924d"/><path d="M79.3,81.4c-8.4,1-17-.1-25.3,1.3-2.8.5-5.5,1.2-8.3,1.5s-5.1.1-7.7.1a69.4,69.4,0,0,0-19,3.6c-2,.7-4.2,1.4-5.7,3a9,9,0,0,0-1.4,2,10.9,10.9,0,0,0-1.2,4.6c0,.5.1.9.1,1.3s-.3,2.6-.4,4a34.6,34.6,0,0,0,.9,7.8,3.8,3.8,0,0,0,1,2,3.5,3.5,0,0,0,2.1.7l9.4,1.5-13,.9c.3,0,.2,10.4.3,11.4.2,3.5.3,7,.6,10.6a25.3,25.3,0,0,0,1,6.7l.6,1.6-1-.7a7.6,7.6,0,0,1-2.8-5.5,6.8,6.8,0,0,1,.2-1.4c.4-1.3.1-2.8.1-4.2-.1-6.3-.3-12.5-.4-18.7a92.3,92.3,0,0,0-.7-11.8,39.2,39.2,0,0,1-.2-5.9,35.7,35.7,0,0,1,.2-7.3,10.2,10.2,0,0,1,1-3.8c.6-1.2,1.6-2.4,3.1-2.3a48.9,48.9,0,0,0,6.6-.5c4.8-.5,9.7-.9,14.6-1.2,9.9-.7,19.9-1,29.9-1.2H79.3Z" fill="#eb924d"/><path d="M516.5,125.6c14.8,3.2,30.2,1.5,45.1,3.4,6.1.8,12.1,2.2,18.2,1.8,2.2-.1,4.6-.5,6.8.1s3.1,2,4.2,3.7,1.7,6.8,1.9,10c.4,8.3-.4,16.6-.8,25a4.4,4.4,0,0,1-.8,2.5,3.1,3.1,0,0,1-1.7.9v-.5a28.2,28.2,0,0,1,.2-4.1,51.7,51.7,0,0,0,.7-5.5v-2.6a17.2,17.2,0,0,0-.4-2.4c-.2-1.1-.1-2.3-.2-3.4s-.3-4.7-.6-7.1a1.4,1.4,0,0,0-.4-1.1,1.8,1.8,0,0,0-1-.2,222.1,222.1,0,0,0-24.4,1.6,102.6,102.6,0,0,0,20.7-3.2c1.4-.4,2.8-.8,3.4-2.1a5,5,0,0,0,.1-3.2c-.3-1.3-.6-2.7-1.7-3.5a5.4,5.4,0,0,0-2.2-.9l-1.4-.2q-7.2-1.3-14.4-2.1-3.6-.5-7.2-.6c-2.4-.1-4.7-.7-7.1-.8l-4.3-.3-14.8-.9-7.3-.4a5.9,5.9,0,0,1-2-.7l-1.1-.4-6.6-1.1-4.6-.8-2.2-.4a10.5,10.5,0,0,0-1.7-.4Z" fill="#eb924d"/><path d="M593.1,224.1c-.2,14.4-.4,28.8-.4,43.2,0,4.8.6,12.9-1.8,17.2a5.3,5.3,0,0,1-3.3,2.3,4.2,4.2,0,0,0,.4-1,28.6,28.6,0,0,0,1.6-6.4,29.3,29.3,0,0,1,.5-2.9,9.9,9.9,0,0,0,.4-3c.3-3.1.5-6.1.8-9.2l.6-7.4.3-3.6a4.9,4.9,0,0,0,.1-1.7c0-.1-.1-.3-.1-.4s0-1.3-.5-1.8a1.6,1.6,0,0,0-1.1-.5,44.8,44.8,0,0,0-11.5-1.5,16.7,16.7,0,0,1,5-.2,12,12,0,0,0,5-.5,5.5,5.5,0,0,0,2.6-2.2c.2-.5.3-1,.5-1.5a15,15,0,0,0,0-3c0-1.7-.1-3.5-.1-5.3,0-5-.1-10-.4-14.9l-.9-11.3c0-1.3-.8-1.9-1.1-3s.4-2.9-.4-4.2-2.1-1.1-3.3-1.1l-23.3-.3c7.2.6,14.5-.8,21.6-2.3a7.7,7.7,0,0,0,2.6-.7,7.1,7.1,0,0,0,2.8-3.4c.3-.7.5-1.5.8-2.2a1.4,1.4,0,0,0,.2-.7,13.1,13.1,0,0,0-.1-2.8c-.1-1.1-.1-2.2-.2-3.3a6,6,0,0,0-.8-3.5c-1-1.4-2.8-1.9-4.4-2.3l-12.6-3.1,3.3-.4,13.6,3.2a2.9,2.9,0,0,1,1.6.7c1.8,1.6,1.4,7.3,1.5,9.4.4,4.1.5,8.2.6,12.3C593.3,208.6,593.1,216.4,593.1,224.1Z" fill="#eb924d"/><path d="M564.7,94.8l-4.8.3,30.3,3a4.8,4.8,0,0,1,2.7.8,3.9,3.9,0,0,1,.8,2,39.1,39.1,0,0,1,.9,9.6,112.3,112.3,0,0,1-1.7,14.2c-.5,2.2-1.9,2.4-3.5,2.1a3.4,3.4,0,0,0,1.6-2.6,149.3,149.3,0,0,0,0-17.7,12.8,12.8,0,0,0-.6-3.3,3.7,3.7,0,0,0-1.3-1.7,3.3,3.3,0,0,0-1-.6l-.3-.2-.6-.2a3.5,3.5,0,0,0-1.1-.3l-4.5-.7c-5.9-1-11.9-1.8-17.9-2.4a75.1,75.1,0,0,1-11.6-1.5c2.9-.2,5.4-.5,8.2-.6Z" fill="#eb924d"/><path d="M592.3,354.1a30.3,30.3,0,0,0,.6-4.2c.2-2.3.2-4.6.2-7s.2-4.1-.4-6a13.5,13.5,0,0,1-.7-4.4c.1-1.9.1-4-1.2-5.5s-3.9-1.7-6.1-1.8H573.3c5-.6,10-1.4,14.9-2.4.8-.2,1.6-.3,2-.9a2.8,2.8,0,0,0,.4-2.2c-.2-4.9-.3-9.9-.6-14.9-.1-2.8-.6-5.2-3.5-6.1s-6.7-1.2-10-1.7q-8.8-1.3-17.7-2.4c-11.9-1.4-23.8-2.4-35.7-2.9q34.6.8,69.2,4.1c1.1.1,1.4,2.5,1.6,3.2a86.2,86.2,0,0,1,1.1,8.7c.6,7.8.7,15.7.8,23.6v.4c.1,1.6.1,3.2.2,4.9,0,4.5.3,9.5-.2,14a15.8,15.8,0,0,1-.9,4.2,6.4,6.4,0,0,1-.8,1.9,9.8,9.8,0,0,1-4.2,2.7,15.7,15.7,0,0,0,1.8-3.1Z" fill="#eb924d"/><path d="M7.6,59.8Q7.2,42.9,6.4,25.9A13.9,13.9,0,0,1,19.1,11.4c189.2-15,378-15.4,566.4,0a13.9,13.9,0,0,1,12.7,14.7c-.6,10-1.1,19.9-1.6,29.9-.4,7-.7,14-1,21a12.4,12.4,0,0,1-.5,3.8c-.7,2.3-.6,4.8-1.1,7.1a4.1,4.1,0,0,1-1,2.1,5,5,0,0,1-2.1.9h-.2a.3.3,0,0,1,.1-.2c.2-3.1.7-6.3.6-9.4,0-1.1-.3-1.9-.2-3a11.4,11.4,0,0,0-.2-4.5,7.8,7.8,0,0,0-9-5.3c2.8-2.4,7.9-1.2,9.9-4.3s.7-3.9.2-5.8A274.7,274.7,0,0,0,557,57a91.4,91.4,0,0,0,29.9-3.3,8.4,8.4,0,0,0,4.3-2.2,9.1,9.1,0,0,0,1.4-4.3c.3-2.5.6-5.1,1-7.5.2-.8.6-1.4.7-2.1a11,11,0,0,0,.1-3.6,33.8,33.8,0,0,0-.9-8.4,20.7,20.7,0,0,0-1.8-4.7c-1.2-2.1-1.9-3.4-4.3-4.3a18.5,18.5,0,0,0-4.7-.8c-5.2-.5-8.8-.6-14-1.2-7.2-.8-14.4-1.6-21.6-2.2-9.8-1-19.6-1.8-29.3-2.4L503.1,9a17.4,17.4,0,0,0-3.2-.1,4.5,4.5,0,0,1-2.3.1,34.5,34.5,0,0,0-7.1-.9c-3,.2-6.3,1.9-6.9,4.8a6.7,6.7,0,0,1-1-3.9,17.6,17.6,0,0,0-3.3,4.3,13,13,0,0,1-3.2-6.4,75.7,75.7,0,0,1-17.8-.1c-.8,2.1-1.6,4.3-2.5,6.4-3-4.8-8.7-7.3-14.4-8s-11.3.2-17,.7a116.6,116.6,0,0,1-22.1-.2,4.5,4.5,0,0,0-2.6.4,3.6,3.6,0,0,0-1,1.5,34.7,34.7,0,0,0-1.6,5.5,10.4,10.4,0,0,0-6-6.8,20.6,20.6,0,0,0-9.2-1.6c-5.7,0-11.4,1.1-17.2,1.2-3.2,0-6.3-.3-9.5-.6a105.5,105.5,0,0,0-13.8-1l-3.4.3a15.7,15.7,0,0,1-3,.5,13.8,13.8,0,0,1-2-.3,25.4,25.4,0,0,0-3.9-.1h-8.7l-29.6-.4-29.6-.3-14.8-.2-3.2-.2-18.5.9L209.4,5c-2.1.1-3.9-.5-6-.8a16.7,16.7,0,0,0-7,.6c-3.2,1.1-5.8,4.7-4.7,7.9.3-3.6-3-6.7-6.5-7.6s-7.3-.2-10.9.4a141.2,141.2,0,0,1-27.6,1.7l-.9,7.8a24.8,24.8,0,0,0-3.2-7.9,16.6,16.6,0,0,0-1.1,11.4c-2.5-3.5-2-9.1-5.8-11.2s-8.5,1.5-12.8,1.1c.1,2.4.3,4.9.4,7.4a8.9,8.9,0,0,0-3.9-6.4c-3.1-2-5.8-1.3-9.2-1l-11,.8L79.6,10.7a22,22,0,0,1-4.4.2,14.5,14.5,0,0,0-3-.4c-15.9.4-32,1.2-47.8,3.9a27.6,27.6,0,0,0-8.5,2.4,11.5,11.5,0,0,0-4.1,3.8,10.1,10.1,0,0,0-1.3,3.8,27.2,27.2,0,0,1-1.1,2.5,16,16,0,0,0-1.5,5.7c-.2,3,1,6.3,3.6,7.8s7.2.4,10.4,2a27.8,27.8,0,0,0-11.1.9,2.6,2.6,0,0,0-1.4.9A2,2,0,0,0,9,45.5a30.8,30.8,0,0,0,.1,6.8c.1,1.1.4,2.2.5,3.3s.2,2.5.2,3.7l.9,14.5c0,.8.2,1.3.2,1.9h-.8a1.1,1.1,0,0,1-.8-.2c-.2-.2-.2-.5-.3-.7A128.7,128.7,0,0,1,7.6,59.8Z" fill="#eb924d"/><path d="M585.5,420.4q-279.2,21.5-566.3,0A14,14,0,0,1,6.3,405.9c.1-1.7.1-3.4.1-5a28.8,28.8,0,0,1,.2-4.2c.1-.5.3-.9.4-1.4s.3-3.3.5-4.9l.9-9.8a2.8,2.8,0,0,1,.1-.9,2.3,2.3,0,0,1,.4-1.4,2.5,2.5,0,0,1,1.2-.8A44.6,44.6,0,0,1,27,374.2a125.8,125.8,0,0,0,18.4-1.6l7.6-1h3.3c-12.6,2.7-25.3,4.4-38,6.4a12.7,12.7,0,0,0-4.8,1.3l-.4.2c-1.7,1-3.2,2.7-3.2,4.7s-.2,1.9-.2,2.8.1,3.8,1.5,5.1a10.5,10.5,0,0,0,3,1.5,73.7,73.7,0,0,0,21.4,3.5H18c-1.8,0-3.6-.1-5.4,0s-3.3,0-4.2,1a1.9,1.9,0,0,0-.5,1.3c-.5,2.7.4,5.4.4,8.1a12.9,12.9,0,0,0,.4,4.8c1,3,3.9,4.9,7,5.8a34,34,0,0,0,4.6.9l2.3.2,1.2.2H39.3l4.7.4a2.1,2.1,0,0,0,1.1.1h1.1l4.3.8a4.9,4.9,0,0,0,2.7-.2c1.5-.5,2.3-2.1,2.7-3.5a23,23,0,0,1,1.2-4.5,40.1,40.1,0,0,1-.1,4.9,4.8,4.8,0,0,0,2,4.2,5.6,5.6,0,0,0,2.8.5h4.8a15.5,15.5,0,0,0,3.1-.4,37.1,37.1,0,0,1,4.7.3l4.9.3,19.6,1.3,5.4.3c16.3.9,32.7,1.6,49,2.1,4.9.2,9.9.1,14.8.4l1.8.4a6.9,6.9,0,0,0,4.2-.8,15.2,15.2,0,0,0,7.5-6c1.6,5.3,7.5,8.2,13,8.8s11-.6,16.5-.4c1.6.1,3.2-.1,4.7-.1s2.2.5,3.3.6a10,10,0,0,0,4.2-.3l1.3-.5a18.3,18.3,0,0,1,4.7-.2H240c7.2,0,14.3.2,21.5.4l10.6.5a5.8,5.8,0,0,0,1.9-.2l1.4-.4a30.4,30.4,0,0,1,5.2-.4h1.1a14.2,14.2,0,0,0,3.6-.3,21.6,21.6,0,0,1,4.4,0H339l29.6.3,29.5.5,14.8.3,7.4.2a13.7,13.7,0,0,0,5.3-.5,8.6,8.6,0,0,1,2.3-.5l4.8-.3a4.3,4.3,0,0,0,1.6-.1,3.7,3.7,0,0,1,2-.5l1.5-.2a11.1,11.1,0,0,0,2.7-1.3,23.4,23.4,0,0,0,4.5-4.4,46.9,46.9,0,0,0,4.2,4.7,2,2,0,0,0,.9.6c1.3.4,2-1.5,3.2-2.2a4.1,4.1,0,0,0,3.4,1.9,17.6,17.6,0,0,0,4-.7,35.4,35.4,0,0,1,11.7-.7l1.5-2.3c.6,2.1,3.4,2.7,5.6,2.7a35.9,35.9,0,0,0,4.7-.3c1.3-.1,2.7-.6,4-.4a45.8,45.8,0,0,0,8.3-.2l19.7-1.3,19.6-1.5,19.1-1.5a33.1,33.1,0,0,1,4.4-.2c4.9-.2,9.8-.4,14.7-.8l7.2-.6c1.2-.2,2.5-.2,3.7-.5l1-.3c2.2-.5,4.5-.6,6.3-2.2a8.1,8.1,0,0,0,2.2-4.2,21.7,21.7,0,0,0,.4-2.5c.1-1.6.3-3.1.3-4.7-.1-5.8-.1-11.7-.2-17.5v-1.7a57.9,57.9,0,0,0-.4-7.2,18.6,18.6,0,0,1-.4-3.3,2.8,2.8,0,0,0,.1-.9,5,5,0,0,0-1.4-3.5l-1.9-1.7a5.6,5.6,0,0,0-1.5-1,22.6,22.6,0,0,0-3.7-1.1l-8.8-2.1a5.4,5.4,0,0,1-2.2-.9c1.1-.1,1.4-.5,2.4-.5h.7l12.3,2.3a9.6,9.6,0,0,1,4.2,1.7,6.5,6.5,0,0,1,1.5,1.8,10.7,10.7,0,0,1,1,3.9c.4,3.3-.1,6.6.3,9.9a41.9,41.9,0,0,1,.3,5c.2,3.3.3,6.6.5,9.9s.3,5.9.4,8.8A13.9,13.9,0,0,1,585.5,420.4Z" fill="#eb924d"/><path d="M252.3,40.1c29.5,1.4,59.1,2.7,88.4,6.1,24.4,2.8,48.6,7.1,73.1,7.2C358.5,56.9,307.7,41.6,252.3,40.1Zm116.9,69.1-5.4-.2c-9.8-.3-19.6-.2-29.3.3s-19.5,1.1-29.2,2.1c-4.8.4-9.7.9-14.5,1.5l-7.3.9-3.6.5h-2.7a14.6,14.6,0,0,0-3.4,1l-3.5,1-7,1.9-14.1,3.6c-4,.9-7.9,1.7-11.9,2.3a227.5,227.5,0,0,1-28.6,3.2l-14.4.3a12.2,12.2,0,0,0-3.3,0l-6.3.9-7.3,1.1a23.3,23.3,0,0,0-2.5.7l-3.5.5c-4.7.4-9.4.1-14.1.3-13,.4-25.6,4.2-38.5,6.1a255.8,255.8,0,0,1-29,2.4h3.3c9.8-.4,19.5-.9,29.3-1.6s19.6-1.5,29.3-2.5l14.7-1.5c2.8-.3,5.5-.4,8.4-.6l17.6-1.4c11.9-1.2,23.6-2.7,35.4-4.5C274.8,120.6,321.5,110.4,369.2,109.2ZM186.8,282.5c10.6,3.8,21.8,5.4,32.9,6.7l16.9,1.9,4.4.6,3.3.3,1,.3a14.5,14.5,0,0,0,3,.3c2.1.4,4.2,1,6.3,1.6a25.4,25.4,0,0,0,8.2,1.1,40.8,40.8,0,0,0,5.9-1.1,42.3,42.3,0,0,1,7.1-.4,84.6,84.6,0,0,1,14.2,1.6l6.3,1.4c2.3.6,4.5,1.4,6.7,2.1a13.1,13.1,0,0,0,4.4.3,31.7,31.7,0,0,1,6.1.7l6.9,1c9.3,1.2,18.6,2.1,28,2.6s18.9.8,28.3.8,18.7-.3,28.1-.9l10.6-.7a273.1,273.1,0,0,1-36.2-.9l-18.2-2c-1.1-.1-2.2-.4-3.2-.4h-2c-4.3.1-8.6.1-13-.1-23.4-1.1-46.4-7-69.8-7.7-4.3-.2-8.6,0-12.9.1a41.5,41.5,0,0,1-8.6-.6l-8.7-1.7c-4.4-.7-8.9-.9-13.3-1.3l-14.4-1.4c-4.8-.5-9.6-1.2-14.4-1.9S191.4,283.4,186.8,282.5Zm126.1-39.1h6a25,25,0,0,1,4.7.2h1.6a11,11,0,0,1,3.6.3h1.6a50.7,50.7,0,0,1,5.5.3l5.8.5,12.1,1c32,2.9,64.2,7.4,96.5,4.8l-112.8-7.7c1.7.1,4-.8,5.7-1.2l5.8-1.2,5.5-1.3,3.1-.7a11.4,11.4,0,0,0,1.9-1l4-1.7a76.4,76.4,0,0,1,8-2.9,123.8,123.8,0,0,1,16.8-3.9c5.7-.9,11.5-1.5,17.3-2l17.5-1.1,8.9-.5a13.5,13.5,0,0,0,2.9-.5l2-1.1a12,12,0,0,1,4.2-.8L452,222c6.3-.5,12.6-1.1,19-.7s11.9,1.6,17.8,1.9,14.1-.6,21-1.5a346.2,346.2,0,0,0-42-1.7c-7.1.1-14.3.5-21.4.8l-18.7,1.1c-6.2.4-12.5.9-18.7,1.7s-12.4,1.7-18.5,2.9c-3.1.6-6.1,1.4-9.1,2.2l-2.7.7a3.5,3.5,0,0,1-1.1.3l-1,.2c-3,1-6.1,1.9-9.1,2.6l-9.3,2-1.3.2-9.7,2-9.6,2-4.9.9-2.4.5-1,.2a19.4,19.4,0,0,1-2.4.2,19,19,0,0,0-4.1.4l-4.8.7-9.7,1.3a159.3,159.3,0,0,1-19.5,1.1ZM219.5,362a114.3,114.3,0,0,1-11.7.3c-4-.1-8.1-.2-12.1-.5-8.1-.5-16.2-1.3-24.2-2.4l-12.1-1.7c-2-.3-3.9-.5-5.8-.9l-.9-.2a10.2,10.2,0,0,0-3.9,0c-5,.3-10.1.5-15.1-.6-2.7-.5-5.3-1.4-8-1.7s-5-.1-7.5-.4-4.1-.9-6.2-1.4c-14-3.7-28.9-2.6-43.1.1,21.4-2.6,42.9,1.9,64.3,5.2,3.7.5,7.5,1.1,11.3,1.4s6.1.3,9.1.7,6.1,1.3,9.2,1.8a23.1,23.1,0,0,0,4.6.5h2.3a6.7,6.7,0,0,1,2,.1c6.5.4,13,.7,19.5.7s12.7,0,19.1-.3ZM532,375.5q-43.2,2.1-86.5,1.6C472.4,383.9,504.7,380.2,532,375.5Z" fill="#eb924d"/><path d="M252.5,38.1c29.5,1.4,59,2.7,88.4,6.1,24.3,2.8,48.5,7.1,73,7.2C358.7,54.9,307.8,39.7,252.5,38.1Zm116.8,69.1h-1.4q-14.7-.4-29.4,0c-9.8.4-19.6,1-29.3,1.9a13.7,13.7,0,0,0-2.8.5,8.8,8.8,0,0,1-2.8.1l-7.2.6c-4.7.6-9.3,1.6-14,2.4-11.8,1.9-23.9,1.9-36,1.8l13.7,1.8c-5.7,2.7-12,4-18.2,5.1s-13.1,2.3-19.7,3.2c-9.7,1.3-19.3,2.3-29,3.1l-14.6.8-3.6.2-2.5-.2c-1.8-.1-3.6.6-5.4.5l-1.4-.2-4.8.6-9.8,1.1-19.5,2.3-39,4.9-39,5.3-1.5.2c29.9-2.2,59.9-4.4,89.6-9.1,7.6-1.2,15.2-2.6,22.9-2.6a72.1,72.1,0,0,0,9.3,0,25.8,25.8,0,0,1,4-.4,27.1,27.1,0,0,0,4-.1q9.4-.7,18.9-1.8c12.7-1.4,25.3-3.2,37.9-5.2l37.9-6.2c12.6-2.1,25.2-4.1,37.9-5.8s25.2-3.1,37.8-3.9C358,107.6,363.7,107.3,369.3,107.2Zm46.2,193.5c-9.3.7-18.7.1-28-.3-7.1-.3-14.1-1.8-21.1-2.1s-14.1.3-21.1,0c-16.4-.7-32.4-5.5-48.8-7-4.4-.4-8.8-.5-13.3-.7l-11.4-.4h-3.2a55.3,55.3,0,0,1-7-.7,25.7,25.7,0,0,0-3.8-.8c-5.9-.7-11.8-1.1-17.7-1.5s-12.1-.9-18.1-1.5-12-1.3-18-2.1l-9.3-1.5-4.2-.8a20.9,20.9,0,0,1-3.6-.7c20.9,7.4,43.4,6.8,65,10.9a18.4,18.4,0,0,1,5.6,1.4,4.3,4.3,0,0,0,2,.6,59.3,59.3,0,0,0,7.3.2c4.9-.1,9.8-.5,14.7-.5s8,1.1,12,1.7,7.3,1,11,1.3a26.8,26.8,0,0,1,6.3,1.1,11.1,11.1,0,0,0,2.6.7l3.4.5,14,1.7c9.4,1,18.8,1.6,28.2,1.9s18.9.4,28.4.2,18.6-.7,27.9-1.5Zm-54.7-65.4,2.7-.9c4.7-1.5,9.6-2.6,14.5-3.8,2.6-.6,5.1-1.5,7.8-2,4.5-.9,9.1-2.1,13.7-2.5h2.1c2,.3,3.9-.3,5.8-.6a140.9,140.9,0,0,1,14.4-1.6h6.1l2.6-.5,4.7-1a5.7,5.7,0,0,0,1.8-.3,7.1,7.1,0,0,1,2-.4c3.2-.5,6.3-.8,9.5-1l13.8-.6a125.9,125.9,0,0,1,13.7.3l3.9.5c6.2.8,12.4,2.2,18.6,2,1.6,0,3.1-.3,4.6-.4a13.3,13.3,0,0,1,2.8.3,66,66,0,0,0,7.7-.2l11.6-.4,24.1-.8-49.5-1.7c-16.6-.6-33.2-1.2-49.7-.6l-10,.6c-12.9.9-25.7,2.5-38.4,4.5-6.3,1.1-12.6,2.2-18.9,3.5l-2.4.6h-.6l-1,.3-2.3.6a47.7,47.7,0,0,1-5.1,1.3l-9.2,1.5c-2.8.5-5.5,1.2-8.2,1.9l-9,2.4-4.6,1-2.3.4h-.9a12.4,12.4,0,0,0-2.7.3l-9.4,1c-3.2.2-6.4.4-9.5.4h-5l-1.8.2-4.9.6-1.8.4c-1.2.3-2.5.3-3.8.5l-8.3,1.2-13.6,1.9c8.7.4,17.3.8,25.9-.3,3.7-.5,7.3-1.3,10.9-1.9s5.2-.8,7.9-1a90.5,90.5,0,0,1,17.2,1.2l14.6,1.9a16.1,16.1,0,0,0,4.9-.1,20.1,20.1,0,0,1,6,.2l29.4,2.9c9.7.8,19.5,1.4,29.3,1.7,4.7.1,9.3.1,14,0l7-.3c2.3-.1,4.6-.4,6.9-.4l-112.7-7.7c1.7.1,4-.8,5.6-1.2l4.6-.9h2.3a38.1,38.1,0,0,0,4.5-1.3ZM219.6,360c-4.9.3-9.9.3-14.8.2-3.3,0-6.5-.2-9.8-.4l-4.9-.4a24,24,0,0,1-4.6-.5,37.1,37.1,0,0,0-4.8-.5l-4.8-.6-9.8-1.1c4.3-2.8,9.7-3.3,14.8-3.9a173.1,173.1,0,0,0,24.8-5.1c-14,.9-27.9,2.4-41.8,4.7-3.7.6-7.5,1.3-11.3,1.7a6.7,6.7,0,0,0-2.4.4,10.2,10.2,0,0,1-3.9.1l-9.7-.3c-6.4-.3-12.8-.8-19.2-1.6l-6.1-1c-3.9-.8-7.9-1.7-11.9-2.2-7.8-.8-15.8.3-23.6,1.6H87c4.8,0,9.7-.1,14.5.3,3.2.3,6.4.8,9.6,1.3s6.2,1.3,9.3,1.8l18.7,2.6q9.5,1.2,18.9,2.1c6.3.6,12.6,1.1,18.9,1.4s12.4.5,18.7.5,12.1-.2,18.2-.6Zm312.5,13.5q-43.2,2.1-86.4,1.6C472.6,381.9,504.8,378.2,532.1,373.5Z" fill="url(#Áåçûìÿííûé_ãðàäèåíò_3-6)"/><path d="M26.2,67.4q.4,40.2,1,80.4c.1,13.3.3,26.7.4,40.1l.3,20.1c0,2,.4,4.3,0,6.2a6.9,6.9,0,0,0-.2,1.3c-.5,10.7-.4,21.5-.5,32.2-.1,4.6-.1,9.2-.2,13.8-.2,12.9-.6,25.8-.9,38.7-.1,6.6-.2,13.2-.2,19.7,0,1.9,0,3.6.1,5.4.5,5.3.8,10.6,1,15.9a23.1,23.1,0,0,1-.4,5.9c-.2,1.2-.2,2.6-.3,3.8l-.6,8c-.5,5.3-.9,10.7-1.3,16a20.7,20.7,0,0,0-.2,4.3c0,.5.1.9.1,1.4s-.6,3-.6,4.6a16.6,16.6,0,0,0,14.9,16.5c53.2,5.2,106.5,8.5,159.9,10.2a14.4,14.4,0,0,1,4.1.5l2.2.4c2.6,0,5.3-.4,7.9-.6a16.2,16.2,0,0,1,4.4-.1,7.8,7.8,0,0,0,2.2.3l5.3.3c1.7.1,3.4-.2,5.1-.2h16.2l21.5.2h86.2c3.5,0,6.9-.2,10.3-.3l21.4-1.4c5.5-.4,11-.9,16.5-1.1l32.2-1.2,32.3-1.6,32.2-1.7,32.3-2.1,32.2-2.3,3-.2c3.8-.3,8.1-.7,11.5-2.7a4.5,4.5,0,0,0,2.1-2.9,41.4,41.4,0,0,0,.6-7c.2-2.6.3-5.3.4-7.9a304.8,304.8,0,0,0-.3-31.7,50.6,50.6,0,0,1-.3-8.7c.1-1.3,0-2.7,0-4s-.1-5.4-.1-8l-.3-16.1c-.3-10.7-.6-21.4-1.1-32.1-.2-3-.3-6-.5-9.1a28.3,28.3,0,0,0-.3-4.1,16.6,16.6,0,0,1-.6-2.1c-.5-2.3,0-5,.1-7.3.2-5.3.4-10.7.5-16q.4-16.1.3-32.1c0-10.7-.3-21.4-.7-32s-.8-21.2-1.7-31.7c-.2-3.1.1-6.5.2-9.7s.1-7.5.2-11.2c.1-7.2.3-14.4.4-21.6.3-14.7.5-29.3.6-44-6.7,21.2-6.7,44.2-5.2,66.4s4.1,44.5,1.5,66.6l.3,194.8L562,393.1,351.4,404.2l-198.8-2L39.3,394.5l-7.2-7.1L36,251.5,33.4,97Z" fill="#eb924d"/><path d="M286.4,411.3c-83.2,0-166.1-3.2-248.2-9.7a12.6,12.6,0,0,1-11.6-13.2C31.2,269.1,31,152.8,25.9,43A12.8,12.8,0,0,1,37.8,29.7c35.7-2.2,71.4-4.1,107.2-5.5l11.3-.4c.7,0,1.4-.3,2.2-.3a26.8,26.8,0,0,1,4.9.1c2.3.1,4.9-.1,6.7-1.6s2.3-4.8,2.5-7.4c-.2,2.7-.2,6.1,2,7.7a7.3,7.3,0,0,0,4.1.9h4.4c1.2,0,2.4-.3,3.6-.3l5.4-.2,21.5-.6,21.5-.4,16.2-.3c17.6-.3,35.1-.5,52.7-.5,8.7-.1,17.5-.1,26.2,0a41.9,41.9,0,0,1,7.1.1,3.7,3.7,0,0,0,2.1-.2,10.6,10.6,0,0,0,4.2-2.2,33.7,33.7,0,0,0,4.6-5.4c-.7,2.5-1.5,5.1-2.3,7.7l21,.2,21.5.3,21.4.4,21.3.5,21.3.6,21.2.8,21.2.8,21.1,1,20.9,1,21,1.2,7.6.4a12.7,12.7,0,0,1,11.9,13.1c-3.7,106.7-3.1,222.7,1.7,344.8A12.7,12.7,0,0,1,567.4,399C473.8,407.2,379.9,411.3,286.4,411.3ZM319.5,30.9c-92.4,0-186.3,3-281.1,9a2.4,2.4,0,0,0-2.3,2.6c1.6,34.7,2.6,69.4,3.3,104.1.3,15.9.4,31.7.5,47.6a31.3,31.3,0,0,1,0,5.3,6.9,6.9,0,0,0-.1,2,5.3,5.3,0,0,0,1,3.5c1.4,1.8,3.9,2.2,6.2,2s4.5-.6,6.7,0l-9.8,1.7a6.8,6.8,0,0,0-2.4.8,4.1,4.1,0,0,0-1.8,3.2,8.2,8.2,0,0,0,.2,2.7,16.2,16.2,0,0,1,.1,2.2v15.7c0,7-.1,14-.1,21l-.3,21.1c0,7-.2,14.1-.3,21.1s-.3,14.2-.4,21.3l-.6,21.3-.6,21.5c-.2,7.1-.5,14.3-.8,21.4,0,2.3-.1,4.6-.2,6.8a2.6,2.6,0,0,0,2.3,2.7q52.8,4,105.6,6.5l9,.4,4.7.2a1.5,1.5,0,0,0,1-.2,5.8,5.8,0,0,1,3.2,0,3.6,3.6,0,0,0,3.3-.8,3.8,3.8,0,0,0,.4-2.6c-.3-3.6-.6-7.1-.8-10.7a30.6,30.6,0,0,0,2.6,9.4,10.6,10.6,0,0,0,7.4,5.8,41.3,41.3,0,0,0,5-.1l5.4.2,10.8.3,21.5.5,21.6.4,11.8.2c17.9.2,35.7.2,53.6.1l26.8-.2,3.3-.5a17.1,17.1,0,0,0,4.5-.9,11.9,11.9,0,0,0,3.8-2.5c2.6-2.3,4.3-5.4,5.9-8.5a42,42,0,0,1,5.5-8.8,155,155,0,0,0-7.7,20.6,19.3,19.3,0,0,1,2.5-.1h13.1l5.3-.2c7.2-.1,14.3-.4,21.5-.6l21.4-.7,21.5-1,21.4-1,21.5-1.2,21.4-1.3,21.5-1.5,21.4-1.6,21.5-1.8,5.3-.5a2.4,2.4,0,0,0,2.3-2.6c-4.7-122.4-5.3-238.6-1.7-345.5a2.4,2.4,0,0,0-2.3-2.6Q444.5,30.8,319.5,30.9Z" fill="url(#Áåçûìÿííûé_ãðàäèåíò_3-7)"/><path d="M576,357.6c-.9-28.4-1.7-56.5-2.2-84.2q-.3-22.2-.6-44.1h0c-.6-65.3.1-128.3,2.2-188.2a10.8,10.8,0,0,0-10.1-11.2l-18.8-1.1q-34.3-1.8-69-3.2c-94.4-3.6-190.9-3.9-288.7-1q-40.1,1.2-80.5,3.1c-23.4,1.1-46.8,2.5-70.4,3.9a11.2,11.2,0,0,0-8.7,5.5,11.3,11.3,0,0,0-1.4,5.8q3,63.8,3.7,130.1c.8,70.2-.2,142.2-3,215.5a10.7,10.7,0,0,0,9.9,11.2q46,3.6,92.6,5.9,77.4,3.9,155.4,3.8,65.9,0,131.9-2.7,74.6-3,149-9.6a10.1,10.1,0,0,0,5.6-2.1,11,11,0,0,0,4.2-9C576.7,376.5,576.4,367,576,357.6Zm-8.2,32.9a2,2,0,0,1-1.1.3q-74.1,6.4-148.3,9.5c-95.4,4-190.8,3.7-285.3-.9q-47.2-2.4-94.2-6a4.5,4.5,0,0,1-4.1-4.5v-.2c2.8-71.6,3.8-142.1,3.1-210.8q-.7-69-3.7-135.3a2,2,0,0,1,.1-1.1,4.4,4.4,0,0,1,4-3.5q34.8-2.2,69.5-3.9c28.5-1.4,56.8-2.5,85.1-3.3Q256.7,29,319.5,29q77.4,0,153.1,2.8Q507.9,33,542.5,35l22.4,1.3a4.3,4.3,0,0,1,4.1,4.5c-2.1,63.3-2.8,129.9-2,199.1l.3,22.1c.5,31.8,1.3,64.2,2.4,96.9.4,9.1.7,18.2,1.1,27.3A4.4,4.4,0,0,1,567.8,390.5Z" fill="url(#linear-gradient)"/><path d="M107.8,34.1Q73.2,35.8,38.3,38a4.4,4.4,0,0,0-4.1,4.6q3,66.3,3.7,135.3l-.2.7c-.4,1.6-2.9,2.1-3.7.5a46,46,0,0,1-2.5-6.1q-.7-66.3-3.7-130.1A11,11,0,0,1,37.9,31.6c23.6-1.4,47-2.8,70.4-3.9A4.7,4.7,0,0,1,107.8,34.1Z" fill="#bee7ed"/><path d="M481,31.1l-8.4.7Q397,28.9,319.5,29q-62.8,0-126.6,1.8a52.8,52.8,0,0,1-12.7-2.3.8.8,0,0,1,0-1.5,57.1,57.1,0,0,1,8.6-2.4c97.8-2.9,194.3-2.6,288.7,1l4.1.9C484.3,27.2,483.4,30.8,481,31.1Z" fill="#bee7ed"/><path d="M573.2,229.3h0a30.2,30.2,0,0,1-3.4,10.1,1.9,1.9,0,0,1-2.8.5c-.8-69.2-.1-135.8,2-199.1a4.3,4.3,0,0,0-4.1-4.5L542.5,35l-1.1-.7a2.1,2.1,0,0,1,0-3.6,33.8,33.8,0,0,1,5.1-1.9l18.8,1.1a10.8,10.8,0,0,1,10.1,11.2C573.3,101,572.6,164,573.2,229.3Z" fill="#bee7ed"/><path d="M576,357.6c-1.6,1.8-4.4,2.5-6.3,1.3-1.1-32.7-1.9-65.1-2.4-96.9,1.3-2.1,4.8-1.5,5.3,1.5l1.2,9.9C574.3,301.1,575.1,329.2,576,357.6Z" fill="#bee7ed"/><path d="M418.3,406.7q-66,2.7-131.9,2.7-78,0-155.4-3.8a48.8,48.8,0,0,1-6.5-2,2.1,2.1,0,0,1,.6-4l8-.2c94.5,4.6,189.9,4.9,285.3.9A5.1,5.1,0,0,1,418.3,406.7Z" fill="#bee7ed"/><path d="M573.2,360.8c-1-28.4-1.7-56.5-2.2-84.1-.2-14.9-.5-29.6-.6-44.1h0c-.6-65.3.1-128.2,2.2-188.2a10.7,10.7,0,0,0-10.2-11.1l-18.7-1.1q-34.4-2-69.1-3.3c-94.3-3.5-190.8-3.9-288.6-.9-26.7.7-53.5,1.8-80.5,3.1q-35.1,1.7-70.4,3.9a10.2,10.2,0,0,0-5.9,2.2,11.3,11.3,0,0,0-1.4,5.8q3,63.8,3.7,130.1c.8,70.2-.2,142.2-3,215.5a10.7,10.7,0,0,0,9.9,11.2q46,3.6,92.6,5.9,77.4,3.9,155.4,3.8,65.9,0,131.9-2.7,74.6-3,149-9.6a10.1,10.1,0,0,0,5.6-2.1,11.3,11.3,0,0,0,1.3-5.8C573.9,379.7,573.5,370.3,573.2,360.8Zm-5.4,29.7a4.5,4.5,0,0,1-3.9,3.6q-74.1,6.4-148.3,9.5c-95.4,3.9-190.8,3.6-285.3-1q-47.3-2.2-94.2-6a4.5,4.5,0,0,1-4.1-4.4V392c2.8-71.6,3.8-142.1,3.1-210.8q-.7-69-3.7-135.4a4.3,4.3,0,0,1,2.9-4.3,4.4,4.4,0,0,1,4-3.5q34.8-2.2,69.5-3.9c28.5-1.4,56.8-2.5,85.1-3.3Q256.7,29,319.5,29q77.4,0,153.1,2.8Q507.9,33,542.5,35l22.4,1.3a4.3,4.3,0,0,1,4.1,4.5c-2.1,63.3-2.8,129.9-2,199.1l.3,22.1c.5,31.8,1.3,64.2,2.4,96.9.4,9.1.7,18.2,1.1,27.3A4.4,4.4,0,0,1,567.8,390.5Z" fill="url(#linear-gradient-2)"/></svg>